<svg width="1920" height="1080" viewBox="0 0 1920 1080" fill="none" xmlns="http://www.w3.org/2000/svg">
<path d="M1920 0H0V1080H1920V0Z" fill="#F4ECE9"/>
<path d="M663.18 229.128H654.732V268.04H659.852C668.428 268.04 677.9 267.528 687.692 265.48L686.86 258.568C678.604 260.168 670.604 260.808 663.18 261V229.128ZM707.34 245.768H699.084V223.496H690.636V282.376H699.084V252.744H707.34V245.768ZM733.319 250.184H721.799V235.08H733.319V250.184ZM741.639 228.424H713.543V256.84H741.639V228.424ZM728.647 262.344H720.199V281.48H760.327V274.76H728.647V262.344ZM758.215 240.584V223.56H749.767V266.568H758.215V247.496H766.023V240.584H758.215ZM789.634 227.464C780.418 227.464 773.442 233.544 773.442 241.992C773.442 250.504 780.418 256.52 789.634 256.52C798.85 256.52 805.89 250.504 805.89 241.992C805.89 233.544 798.85 227.464 789.634 227.464ZM789.634 234.696C794.178 234.696 797.634 237.384 797.634 241.992C797.634 246.6 794.178 249.288 789.634 249.288C785.09 249.288 781.634 246.6 781.634 241.992C781.634 237.384 785.09 234.696 789.634 234.696ZM811.394 223.496V282.632H819.842V223.496H811.394ZM772.034 270.664C782.21 270.664 796.034 270.536 808.706 267.976L808.194 261.896C795.778 263.752 781.314 263.816 770.946 263.816L772.034 270.664ZM885.886 223.496V282.632H894.334V223.496H885.886ZM848.382 228.232V268.872H877.438V228.232H869.054V242.504H856.766V228.232H848.382ZM856.766 249.096H869.054V262.152H856.766V249.096ZM953.273 223.56H944.825V253.256H953.273V223.56ZM927.673 244.808H915.641V233.096H927.673V244.808ZM935.929 226.504H907.321V251.464H935.929V226.504ZM922.425 275.528V271.816H953.273V255.88H914.041V262.344H944.953V265.8H914.105V282.056H954.809V275.528H922.425ZM973.236 237.192H986.74V230.344H964.916V269.256H969.012C976.564 269.256 982.836 269 990.004 267.656L989.364 260.808C983.732 261.832 978.74 262.152 973.236 262.28V237.192ZM1005.81 223.496V246.216H1000.5V224.648H992.628V279.752H1000.5V253H1005.81V282.504H1013.81V223.496H1005.81ZM1056.82 228.744H1043.7V223.24H1035.18V228.744H1022.13V235.4H1056.82V228.744ZM1033.07 248.072C1033.07 245.128 1035.63 243.656 1039.47 243.656C1043.25 243.656 1045.87 245.128 1045.87 248.072C1045.87 251.08 1043.25 252.552 1039.47 252.552C1035.63 252.552 1033.07 251.08 1033.07 248.072ZM1053.94 248.072C1053.94 241.672 1047.98 237.256 1039.47 237.256C1031.02 237.256 1025.01 241.672 1025.01 248.072C1025.01 254.536 1031.02 258.952 1039.47 258.952C1047.98 258.952 1053.94 254.536 1053.94 248.072ZM1029.23 269.704H1060.08V282.568H1068.53V262.92H1029.23V269.704ZM1076.34 238.728H1068.53V223.624H1060.08V260.488H1068.53V245.704H1076.34V238.728ZM1131.63 228.744H1118.51V223.24H1110V228.744H1096.94V235.4H1131.63V228.744ZM1107.88 248.072C1107.88 245.128 1110.44 243.656 1114.28 243.656C1118.06 243.656 1120.68 245.128 1120.68 248.072C1120.68 251.08 1118.06 252.552 1114.28 252.552C1110.44 252.552 1107.88 251.08 1107.88 248.072ZM1128.75 248.072C1128.75 241.672 1122.8 237.256 1114.28 237.256C1105.84 237.256 1099.82 241.672 1099.82 248.072C1099.82 254.536 1105.84 258.952 1114.28 258.952C1122.8 258.952 1128.75 254.536 1128.75 248.072ZM1104.04 269.704H1134.89V282.568H1143.34V262.92H1104.04V269.704ZM1151.15 238.728H1143.34V223.624H1134.89V260.488H1143.34V245.704H1151.15V238.728ZM1193.45 244.68H1198.05V259.592H1206.05V223.56H1198.05V237.896H1193.45V224.648H1185.57V257.736H1193.45V244.68ZM1185.51 249.736C1177.77 246.6 1174.57 240.264 1174.57 233.928V227.08H1166.44V233.928C1166.44 240.584 1163.24 247.88 1154.98 251.464L1159.46 257.992C1164.9 255.688 1168.55 251.464 1170.66 246.472C1172.77 250.696 1176.17 254.216 1181.03 256.136L1185.51 249.736ZM1186.09 276.168C1178.41 276.168 1174.18 274.632 1174.18 271.496C1174.18 268.36 1178.41 266.824 1186.09 266.824C1193.64 266.824 1197.86 268.36 1197.86 271.496C1197.86 274.632 1193.64 276.168 1186.09 276.168ZM1186.09 260.488C1173.67 260.488 1165.73 264.648 1165.73 271.496C1165.73 278.408 1173.67 282.504 1186.09 282.504C1198.44 282.504 1206.31 278.408 1206.31 271.496C1206.31 264.648 1198.44 260.488 1186.09 260.488ZM1219.81 248.52C1230.95 247.496 1238.18 243.4 1241.31 237.768C1244.39 243.4 1251.68 247.496 1262.75 248.52L1265.7 241.928C1254.5 240.968 1248.74 237.064 1247.39 233.032H1263.14V226.312H1219.55V233.032H1235.23C1233.89 237.064 1228.13 240.968 1216.99 241.928L1219.81 248.52ZM1241.19 276.04C1233.31 276.04 1229.28 274.632 1229.28 271.56C1229.28 268.488 1233.31 267.144 1241.19 267.144C1249.06 267.144 1253.09 268.488 1253.09 271.56C1253.09 274.632 1249.06 276.04 1241.19 276.04ZM1241.19 260.616C1228.45 260.616 1220.77 264.648 1220.77 271.56C1220.77 278.536 1228.45 282.504 1241.19 282.504C1253.92 282.504 1261.67 278.536 1261.67 271.56C1261.67 264.648 1253.92 260.616 1241.19 260.616ZM1214.69 250.76V257.416H1267.94V250.76H1214.69Z" fill="#1C2D30"/>
<path d="M644.184 338.268H653.564V336.364H641.888V352.856H643.876C648.608 352.856 651.912 352.688 655.748 351.96L655.496 350.056C651.856 350.7 648.636 350.896 644.184 350.896V338.268ZM664.288 343.868H660.144V333.956H657.848V359.128H660.144V345.772H664.288V343.868ZM669.298 341.348C669.298 338.996 671.09 337.372 673.61 337.372C676.102 337.372 677.922 338.996 677.922 341.348C677.922 343.7 676.102 345.352 673.61 345.352C671.09 345.352 669.298 343.7 669.298 341.348ZM680.162 341.348C680.162 337.876 677.39 335.468 673.61 335.468C669.802 335.468 667.058 337.876 667.058 341.348C667.058 344.848 669.802 347.284 673.61 347.284C677.39 347.284 680.162 344.848 680.162 341.348ZM678.09 357.224C674.366 357.224 672.098 356.132 672.098 354.34C672.098 352.52 674.366 351.456 678.09 351.456C681.786 351.456 684.054 352.52 684.054 354.34C684.054 356.132 681.786 357.224 678.09 357.224ZM678.09 349.636C672.994 349.636 669.802 351.344 669.802 354.34C669.802 357.308 672.994 359.044 678.09 359.044C683.158 359.044 686.35 357.308 686.35 354.34C686.35 351.344 683.158 349.636 678.09 349.636ZM689.738 339.584V337.708H686.098V333.984H683.802V348.852H686.098V344.96H689.738V343.056H686.098V339.584H689.738ZM707.235 337.036H700.963V333.956H698.667V337.036H692.423V338.884H707.235V337.036ZM696.007 344.932C696.007 343.196 697.547 342.076 699.815 342.076C702.083 342.076 703.651 343.196 703.651 344.932C703.651 346.696 702.083 347.816 699.815 347.816C697.547 347.816 696.007 346.696 696.007 344.932ZM705.835 344.932C705.835 342.132 703.371 340.284 699.815 340.284C696.259 340.284 693.823 342.132 693.823 344.932C693.823 347.76 696.259 349.608 699.815 349.608C703.371 349.608 705.835 347.76 705.835 344.932ZM698.499 351.316H696.203V358.512H712.947V356.636H698.499V351.316ZM711.827 342.244V333.956H709.531V352.8H711.827V344.176H715.523V342.244H711.827ZM726.471 336.98V338.828H733.863C733.779 340.172 733.583 341.46 733.247 342.72L725.239 343.252L725.547 345.24L732.631 344.512C731.399 347.508 729.103 350.14 725.239 352.268L726.555 353.92C734.171 349.72 736.103 343.532 736.103 336.98H726.471ZM744.167 333.956V344.12H740.779V334.572H738.623V357.84H740.779V346.024H744.167V359.072H746.351V333.956H744.167ZM766.06 345.24C762.084 345.884 758.808 346.024 754.356 346.024V342.412H763.456V335.44H752.032V337.316H761.188V340.648H752.116V347.9H754.132C758.78 347.9 762.196 347.76 766.312 347.088L766.06 345.24ZM754.636 352.548H769.112V359.072H771.408V350.672H754.636V352.548ZM769.112 333.984V349.328H771.408V333.984H769.112ZM780.002 345.156H788.234V343.308H780.002V338.128H789.326V336.224H777.706V353.052H779.638C784.426 353.052 787.478 352.912 791.118 352.268L790.866 350.392C787.45 351.008 784.538 351.176 780.002 351.176V345.156ZM794.954 333.928V343.42H789.774V345.324H794.954V359.1H797.25V333.928H794.954ZM823.709 347.06H817.465V338.324H823.709V347.06ZM815.169 347.06H811.333V348.936H829.841V347.06H826.005V338.324H829.897V336.476H811.277V338.324H815.169V347.06ZM809.261 353.948V355.852H832.025V353.948H809.261ZM847.535 354.088V349.356H855.571V347.508H840.115V343.448H854.983V335.804H837.791V337.68H852.743V341.6H837.847V349.356H845.211V354.088H834.991V355.964H857.811V354.088H847.535ZM881.413 333.956H879.117V347.004H881.413V333.956ZM866.601 337.456H870.689V343.98C869.317 344.064 867.945 344.12 866.601 344.148V337.456ZM876.597 343.504C875.393 343.616 874.161 343.756 872.901 343.84V337.456H875.365V335.636H861.897V337.456H864.361V344.204C863.269 344.232 862.205 344.232 861.225 344.232L861.449 346.136C865.873 346.108 871.725 345.94 876.709 345.184L876.597 343.504ZM867.357 356.972V354.228H881.413V348.208H865.005V350H879.145V352.52H865.089V358.792H882.365V356.972H867.357ZM899.051 354.088V349.356H907.087V347.508H891.631V343.448H906.499V335.804H889.307V337.68H904.259V341.6H889.363V349.356H896.727V354.088H886.507V355.964H909.327V354.088H899.051ZM922.514 336.392H920.246V352.716H922.234C926.07 352.716 929.906 352.436 934.19 351.568L933.91 349.664C929.85 350.476 926.126 350.784 922.514 350.784V336.392ZM942.59 343.98H938.558V333.956H936.262V359.072H938.558V345.884H942.59V343.98ZM955.328 345.996H948.272V338.044H955.328V345.996ZM957.568 336.196H946.032V347.816H957.568V336.196ZM951.156 350.616H948.86V358.512H965.604V356.636H951.156V350.616ZM964.484 341.6V333.928H962.188V352.324H964.484V343.532H968.18V341.6H964.484ZM978.902 335.804C975.01 335.804 972.182 338.184 972.182 341.712C972.182 345.212 975.01 347.62 978.902 347.62C982.822 347.62 985.622 345.212 985.622 341.712C985.622 338.184 982.822 335.804 978.902 335.804ZM978.902 337.764C981.506 337.764 983.382 339.36 983.382 341.712C983.382 344.036 981.506 345.66 978.902 345.66C976.326 345.66 974.422 344.036 974.422 341.712C974.422 339.36 976.326 337.764 978.902 337.764ZM988.926 333.956V359.128H991.222V333.956H988.926ZM971.202 353.612C975.738 353.612 981.814 353.556 987.47 352.52L987.274 350.812C981.786 351.652 975.486 351.68 970.922 351.68L971.202 353.612ZM1018.35 336.616H1012.08V333.816H1009.78V336.616H1003.54V338.464H1018.35V336.616ZM1007.12 344.288C1007.12 342.636 1008.64 341.544 1010.93 341.544C1013.23 341.544 1014.77 342.636 1014.77 344.288C1014.77 345.968 1013.23 347.06 1010.93 347.06C1008.64 347.06 1007.12 345.968 1007.12 344.288ZM1016.95 344.288C1016.95 341.544 1014.52 339.752 1010.93 339.752C1007.38 339.752 1004.94 341.544 1004.94 344.288C1004.94 347.06 1007.38 348.824 1010.93 348.824C1014.52 348.824 1016.95 347.06 1016.95 344.288ZM1006.65 352.912H1020.65V359.1H1022.94V351.036H1006.65V352.912ZM1026.67 340.9H1022.94V333.984H1020.65V349.664H1022.94V342.804H1026.67V340.9ZM1045.01 342.58H1048.2V349.468H1050.41V333.984H1048.2V340.704H1045.01V334.46H1042.82V348.656H1045.01V342.58ZM1041.79 345.744C1038.57 344.512 1036.69 341.684 1036.69 338.912V335.524H1034.48V338.912C1034.48 341.712 1032.52 344.96 1029.24 346.416L1030.47 348.208C1032.91 347.116 1034.7 344.988 1035.6 342.636C1036.49 344.764 1038.2 346.556 1040.55 347.508L1041.79 345.744ZM1042.12 357.28C1038.37 357.28 1036.02 356.272 1036.02 354.536C1036.02 352.8 1038.37 351.82 1042.12 351.82C1045.93 351.82 1048.25 352.8 1048.25 354.536C1048.25 356.272 1045.93 357.28 1042.12 357.28ZM1042.12 350.028C1036.97 350.028 1033.75 351.68 1033.75 354.536C1033.75 357.392 1036.97 359.044 1042.12 359.044C1047.3 359.044 1050.52 357.392 1050.52 354.536C1050.52 351.68 1047.3 350.028 1042.12 350.028ZM1057.07 344.372C1061.19 343.868 1064.94 342.048 1066.34 339.304C1067.71 342.048 1071.49 343.868 1075.61 344.372L1076.42 342.552C1071.97 342.076 1067.94 339.892 1067.82 337.092H1075.64V335.244H1057.07V337.092H1064.86C1064.74 339.892 1060.71 342.076 1056.26 342.552L1057.07 344.372ZM1066.31 357.224C1062.36 357.224 1060.04 356.244 1060.04 354.48C1060.04 352.744 1062.36 351.736 1066.31 351.736C1070.23 351.736 1072.58 352.744 1072.58 354.48C1072.58 356.244 1070.23 357.224 1066.31 357.224ZM1066.31 349.944C1060.94 349.944 1057.72 351.568 1057.72 354.48C1057.72 357.42 1060.94 359.044 1066.31 359.044C1071.66 359.044 1074.91 357.42 1074.91 354.48C1074.91 351.568 1071.66 349.944 1066.31 349.944ZM1054.97 345.912V347.76H1077.68V345.912H1054.97ZM1092.07 336.112C1096.19 336.112 1098.54 337.064 1098.54 338.744C1098.54 340.424 1096.19 341.376 1092.07 341.376C1087.95 341.376 1085.6 340.424 1085.6 338.744C1085.6 337.064 1087.95 336.112 1092.07 336.112ZM1092.07 343.084C1097.59 343.084 1100.89 341.572 1100.89 338.744C1100.89 335.916 1097.59 334.376 1092.07 334.376C1086.55 334.376 1083.25 335.916 1083.25 338.744C1083.25 341.572 1086.55 343.084 1092.07 343.084ZM1085.77 354.452H1100.53V348.796H1083.45V350.532H1098.26V352.772H1083.53V358.792H1101.28V357H1085.77V354.452ZM1080.7 344.792V346.64H1103.44V344.792H1080.7ZM1123.77 345.996H1116.71V338.044H1123.77V345.996ZM1126.01 336.196H1114.47V347.816H1126.01V336.196ZM1119.59 350.616H1117.3V358.512H1134.04V356.636H1119.59V350.616ZM1132.92 341.6V333.928H1130.63V352.324H1132.92V343.532H1136.62V341.6H1132.92ZM1159.21 340.564H1144.51V336.644H1158.96V334.796H1142.22V342.412H1159.21V340.564ZM1144.23 354.396H1158.99V348.488H1141.91V350.28H1156.72V352.688H1141.99V358.764H1159.74V356.972H1144.23V354.396ZM1139.19 344.428V346.304H1161.93V344.428H1139.19ZM1171.67 351.372C1169.26 351.372 1167.58 348.74 1167.58 344.652C1167.58 340.592 1169.26 337.96 1171.67 337.96C1174.05 337.96 1175.73 340.592 1175.73 344.652C1175.73 348.74 1174.05 351.372 1171.67 351.372ZM1183.34 333.956V343.532H1177.88C1177.52 338.828 1175.06 335.888 1171.67 335.888C1168 335.888 1165.4 339.304 1165.4 344.652C1165.4 350 1168 353.416 1171.67 353.416C1175.17 353.416 1177.66 350.336 1177.88 345.408H1183.34V359.128H1185.64V333.956H1183.34ZM1195.66 342.104H1208.49V346.724H1195.66V342.104ZM1203.22 353.976V348.572H1210.73V335.748H1208.49V340.228H1195.66V335.748H1193.39V348.572H1200.9V353.976H1190.71V355.852H1213.47V353.976H1203.22ZM1223.91 336.336H1221.7V341.124C1221.7 345.436 1219.63 349.944 1216.18 351.96L1217.61 353.668C1220.1 352.128 1221.92 349.3 1222.82 345.968C1223.72 349.02 1225.4 351.68 1227.78 353.136L1229.09 351.344C1225.79 349.328 1223.91 345.072 1223.91 341.04V336.336ZM1230.52 342.972H1226.38V344.876H1230.52V357.84H1232.68V334.516H1230.52V342.972ZM1235.62 333.956V359.072H1237.8V333.956H1235.62ZM1250.09 348.04C1251.13 348.292 1252.33 348.432 1253.56 348.432C1254.82 348.432 1256.03 348.292 1257.09 348.04V353.948H1250.09V348.04ZM1253.56 337.344C1257.59 337.344 1260.51 339.192 1260.51 341.992C1260.51 344.792 1257.59 346.64 1253.56 346.64C1249.53 346.64 1246.65 344.792 1246.65 341.992C1246.65 339.192 1249.53 337.344 1253.56 337.344ZM1259.39 353.948V347.144C1261.46 346.052 1262.69 344.26 1262.69 341.992C1262.69 338.072 1258.91 335.552 1253.56 335.552C1248.24 335.552 1244.43 338.072 1244.43 341.992C1244.43 344.26 1245.69 346.08 1247.79 347.172V353.948H1242.19V355.852H1265.01V353.948H1259.39ZM1271.43 337.094L1271.25 351.381H1268.97L1268.78 337.094H1271.43ZM1268.7 355.729C1268.7 355.318 1268.82 354.972 1269.07 354.689C1269.32 354.407 1269.7 354.266 1270.19 354.266C1270.67 354.266 1271.04 354.407 1271.29 354.689C1271.56 354.972 1271.69 355.318 1271.69 355.729C1271.69 356.12 1271.56 356.458 1271.29 356.74C1271.04 357.023 1270.67 357.164 1270.19 357.164C1269.7 357.164 1269.32 357.023 1269.07 356.74C1268.82 356.458 1268.7 356.12 1268.7 355.729ZM706.705 383.8H711.269V381.924H699.621V383.8H704.493V385.76C704.493 390.856 702.617 395.14 699.033 397.156L700.433 398.892C703.037 397.38 704.801 394.664 705.641 391.248C706.537 394.216 708.273 396.652 710.737 398.024L712.081 396.26C708.525 394.412 706.705 390.352 706.705 385.76V383.8ZM718.493 378.928V389.092H715.189V379.516H713.033V402.84H715.189V390.996H718.493V404.072H720.705V378.928H718.493ZM726.499 381.42V397.744H738.035V381.42H726.499ZM735.795 383.268V395.924H728.739V383.268H735.795ZM743.299 378.956V404.128H745.595V378.956H743.299ZM771.408 378.984H769.112V393.32H771.408V378.984ZM757.912 382.344C760.404 382.344 762.252 383.996 762.252 386.292C762.252 388.616 760.404 390.24 757.912 390.24C755.42 390.24 753.628 388.616 753.628 386.292C753.628 383.996 755.42 382.344 757.912 382.344ZM757.912 392.144C761.72 392.144 764.492 389.764 764.492 386.292C764.492 382.82 761.72 380.44 757.912 380.44C754.132 380.44 751.388 382.82 751.388 386.292C751.388 389.764 754.132 392.144 757.912 392.144ZM768.608 394.412H766.368V395.756C766.368 397.716 765.164 400.236 762.756 401.72C760.432 400.348 759.284 397.968 759.284 395.756V394.412H757.072V395.756C757.072 398.164 755.196 400.88 752.032 402L753.18 403.736C755.532 402.84 757.24 401.104 758.136 399.088C758.892 401.188 760.404 403.008 762.812 403.96C765.136 402.952 766.676 401.048 767.46 399.004C768.3 401.104 770.036 402.84 772.5 403.736L773.648 402C770.456 400.936 768.608 398.36 768.608 395.756V394.412ZM796.69 386.516H781.906V379.88H779.61V388.392H796.69V386.516ZM781.738 396.12H779.442V403.456H796.83V401.58H781.738V396.12ZM776.53 391.752V393.6H799.294V391.752H776.53ZM813.097 395.28V397.128H827.573V404.1H829.869V395.28H813.097ZM827.573 378.984V393.908H829.869V378.984H827.573ZM816.401 380.468C812.593 380.468 809.849 382.876 809.849 386.404C809.849 389.932 812.593 392.34 816.401 392.34C820.181 392.34 822.953 389.932 822.953 386.404C822.953 382.876 820.181 380.468 816.401 380.468ZM816.401 382.4C818.893 382.4 820.713 384.052 820.713 386.404C820.713 388.756 818.893 390.408 816.401 390.408C813.881 390.408 812.089 388.756 812.089 386.404C812.089 384.052 813.881 382.4 816.401 382.4ZM845.379 390.184H838.435V382.708H845.379V390.184ZM853.387 384.892V388H847.619V384.892H853.387ZM847.619 389.848H853.387V393.824H855.711V378.984H853.387V383.044H847.619V380.86H836.167V392.004H847.619V389.848ZM847.395 402.252C843.643 402.252 841.347 401.16 841.347 399.312C841.347 397.464 843.643 396.372 847.395 396.372C851.203 396.372 853.499 397.464 853.499 399.312C853.499 401.16 851.203 402.252 847.395 402.252ZM847.395 394.58C842.243 394.58 839.051 396.288 839.051 399.312C839.051 402.308 842.243 404.044 847.395 404.044C852.575 404.044 855.795 402.308 855.795 399.312C855.795 396.288 852.575 394.58 847.395 394.58ZM874.414 396.372C871.978 396.372 870.27 393.74 870.27 389.652C870.27 385.592 871.978 382.96 874.414 382.96C876.822 382.96 878.53 385.592 878.53 389.652C878.53 393.74 876.822 396.372 874.414 396.372ZM874.414 380.888C870.718 380.888 868.086 384.304 868.086 389.652C868.086 395 870.718 398.416 874.414 398.416C878.11 398.416 880.714 395 880.714 389.652C880.714 384.304 878.11 380.888 874.414 380.888ZM891.186 388.98H887.042V378.984H884.746V404.072H887.042V390.912H891.186V388.98ZM911.736 378.956V404.128H914.032V378.956H911.736ZM900.788 380.888C897.064 380.888 894.404 384.304 894.404 389.652C894.404 395 897.064 398.416 900.788 398.416C904.512 398.416 907.172 395 907.172 389.652C907.172 384.304 904.512 380.888 900.788 380.888ZM900.788 382.96C903.224 382.96 904.96 385.592 904.96 389.652C904.96 393.74 903.224 396.372 900.788 396.372C898.324 396.372 896.588 393.74 896.588 389.652C896.588 385.592 898.324 382.96 900.788 382.96ZM923.13 383.268H932.734V381.336H920.862V397.884H922.878C927.946 397.884 931.222 397.716 935.086 397.016L934.834 395.084C931.138 395.784 927.974 395.924 923.13 395.924V383.268ZM937.494 378.956V404.128H939.79V378.956H937.494ZM957.512 399.088V394.356H965.548V392.508H950.092V388.448H964.96V380.804H947.768V382.68H962.72V386.6H947.824V394.356H955.188V399.088H944.968V400.964H967.788V399.088H957.512ZM986.155 383.436H991.727V381.532H978.147V383.436H983.887V386.628C983.887 390.884 980.863 395.644 977.279 397.436L978.623 399.256C981.451 397.8 983.887 394.608 985.035 390.94C986.183 394.3 988.535 397.24 991.335 398.64L992.651 396.792C989.011 395.084 986.155 390.632 986.155 386.628V383.436ZM1001.16 389.092H997.019V378.984H994.723V404.072H997.019V391.024H1001.16V389.092ZM1024.06 378.956H1021.77V397.38H1024.06V378.956ZM1018.58 391.472C1014.85 390.1 1012.3 386.684 1012.3 382.904V380.356H1010.01V382.904C1010.01 386.824 1007.49 390.464 1003.71 391.92L1004.91 393.796C1007.85 392.564 1010.12 390.128 1011.18 387.076C1012.3 389.932 1014.52 392.2 1017.37 393.292L1018.58 391.472ZM1010.2 401.636V395.672H1007.91V403.512H1024.82V401.636H1010.2ZM1040.55 381.112C1044.67 381.112 1047.02 382.064 1047.02 383.744C1047.02 385.424 1044.67 386.376 1040.55 386.376C1036.44 386.376 1034.09 385.424 1034.09 383.744C1034.09 382.064 1036.44 381.112 1040.55 381.112ZM1040.55 388.084C1046.07 388.084 1049.37 386.572 1049.37 383.744C1049.37 380.916 1046.07 379.376 1040.55 379.376C1035.04 379.376 1031.73 380.916 1031.73 383.744C1031.73 386.572 1035.04 388.084 1040.55 388.084ZM1034.25 399.452H1049.01V393.796H1031.93V395.532H1046.74V397.772H1032.01V403.792H1049.77V402H1034.25V399.452ZM1029.19 389.792V391.64H1051.92V389.792H1029.19ZM1070.51 393.18H1075.97V399.144H1070.51V393.18ZM1070.12 383.128H1076.37V391.332H1070.12V383.128ZM1078.27 399.144V393.18H1082.53V391.332H1078.66V383.128H1082.55V381.28H1063.93V383.128H1067.83V391.332H1063.99V393.18H1068.22V399.144H1061.89V401.02H1084.68V399.144H1078.27ZM1101.79 385.648V387.524H1106.02V390.912H1101.79V392.788H1106.02V398.108H1108.34V378.984H1106.02V385.648H1101.79ZM1101.79 382.036H1096.02V378.928H1093.72V382.036H1087.73V383.884H1101.79V382.036ZM1091.34 390.044C1091.34 388.28 1092.77 387.076 1094.84 387.076C1096.92 387.076 1098.34 388.28 1098.34 390.044C1098.34 391.836 1096.92 393.068 1094.84 393.068C1092.77 393.068 1091.34 391.836 1091.34 390.044ZM1100.53 390.044C1100.53 387.188 1098.18 385.284 1094.84 385.284C1091.51 385.284 1089.16 387.188 1089.16 390.044C1089.16 392.928 1091.51 394.86 1094.84 394.86C1098.18 394.86 1100.53 392.928 1100.53 390.044ZM1094.51 401.636V396.484H1092.21V403.512H1108.93V401.636H1094.51ZM1119.65 396.344C1117.69 396.344 1116.32 394.748 1116.32 392.508C1116.32 390.324 1117.69 388.728 1119.65 388.728C1121.58 388.728 1122.98 390.324 1122.98 392.508C1122.98 394.748 1121.58 396.344 1119.65 396.344ZM1119.65 386.796C1116.54 386.796 1114.27 389.148 1114.27 392.508C1114.27 395.924 1116.54 398.248 1119.65 398.248C1122.76 398.248 1125.03 395.924 1125.03 392.508C1125.03 389.148 1122.76 386.796 1119.65 386.796ZM1120.77 379.684H1118.5V383.24H1113.41V385.116H1125.87V383.24H1120.77V379.684ZM1132.5 378.928V389.54H1129.28V379.516H1127.13V402.84H1129.28V391.416H1132.5V404.044H1134.71V378.928H1132.5ZM1144.15 387.104H1156.97V391.724H1144.15V387.104ZM1151.71 398.976V393.572H1159.21V380.748H1156.97V385.228H1144.15V380.748H1141.88V393.572H1149.38V398.976H1139.19V400.852H1161.96V398.976H1151.71ZM1172.4 381.336H1170.18V386.124C1170.18 390.436 1168.11 394.944 1164.67 396.96L1166.1 398.668C1168.59 397.128 1170.41 394.3 1171.3 390.968C1172.2 394.02 1173.88 396.68 1176.26 398.136L1177.58 396.344C1174.27 394.328 1172.4 390.072 1172.4 386.04V381.336ZM1179 387.972H1174.86V389.876H1179V402.84H1181.16V379.516H1179V387.972ZM1184.1 378.956V404.072H1186.28V378.956H1184.1ZM1198.57 393.04C1199.61 393.292 1200.81 393.432 1202.05 393.432C1203.31 393.432 1204.51 393.292 1205.57 393.04V398.948H1198.57V393.04ZM1202.05 382.344C1206.08 382.344 1208.99 384.192 1208.99 386.992C1208.99 389.792 1206.08 391.64 1202.05 391.64C1198.01 391.64 1195.13 389.792 1195.13 386.992C1195.13 384.192 1198.01 382.344 1202.05 382.344ZM1207.87 398.948V392.144C1209.94 391.052 1211.17 389.26 1211.17 386.992C1211.17 383.072 1207.39 380.552 1202.05 380.552C1196.73 380.552 1192.92 383.072 1192.92 386.992C1192.92 389.26 1194.18 391.08 1196.28 392.172V398.948H1190.68V400.852H1213.5V398.948H1207.87ZM1219.92 382.094L1219.74 396.381H1217.46L1217.26 382.094H1219.92ZM1217.18 400.729C1217.18 400.318 1217.3 399.972 1217.55 399.689C1217.81 399.407 1218.18 399.266 1218.67 399.266C1219.15 399.266 1219.52 399.407 1219.78 399.689C1220.04 399.972 1220.18 400.318 1220.18 400.729C1220.18 401.12 1220.04 401.458 1219.78 401.74C1219.52 402.023 1219.15 402.164 1218.67 402.164C1218.18 402.164 1217.81 402.023 1217.55 401.74C1217.3 401.458 1217.18 401.12 1217.18 400.729Z" fill="#1C2D30"/>
<mask id="mask0_3799_5" style="mask-type:alpha" maskUnits="userSpaceOnUse" x="669" y="505" width="120" height="120">
<path d="M729 625C762.137 625 789 598.137 789 565C789 531.863 762.137 505 729 505C695.863 505 669 531.863 669 565C669 598.137 695.863 625 729 625Z" fill="#F3F3F3"/>
</mask>
<g mask="url(#mask0_3799_5)">
<path d="M710.257 551.402C710.257 551.402 696.943 570.104 702.331 593.639C707.27 615.201 699.375 607.508 709.094 619.116C718.813 630.723 756.036 622.551 756.036 622.551C756.036 622.551 753.219 608.234 754.766 601.054C759.418 579.461 757.305 562.37 751.811 555.915C746.317 549.461 710.257 551.402 710.257 551.402Z" fill="#232A33"/>
<path d="M721.769 600.403L719.656 620.524L738.668 621.047L735.712 599.336L721.769 600.403Z" fill="#C1B3B2"/>
<path d="M723.251 521.744C717.458 522.971 703.29 531.74 700.644 551.616C698.511 567.331 706.139 587.729 712.892 590.737C719.645 593.746 743.735 591.175 749.656 585.584C755.577 579.994 759.684 554.848 757.124 546.249C754.563 537.651 745.644 517.018 723.251 521.744Z" fill="#232A33"/>
<path d="M729.13 603.636C742.994 603.636 754.233 588.208 754.233 569.176C754.233 550.145 742.994 534.717 729.13 534.717C715.266 534.717 704.027 550.145 704.027 569.176C704.027 588.208 715.266 603.636 729.13 603.636Z" fill="#E5D4CF"/>
<path d="M718.206 534.225C712.072 537.021 703.836 551.092 704.049 567.447C704.049 567.447 730.027 569.325 742.072 563.18L740.386 543.336C740.386 543.336 745.133 558.976 745.454 562.401L753.69 560.876C753.69 560.876 752.516 536.775 738.476 532.657C729.803 530.161 724.309 531.43 718.206 534.225Z" fill="#232A33"/>
<path d="M728.084 573.337C722.412 569.101 715.452 566.953 708.379 567.256C697.284 567.8 694.734 569.571 694.734 569.571C694.734 569.571 713.842 580.976 721.534 578.767C725.3 577.7 726.772 577.135 728.18 577.167C731.381 577.242 732.309 579.183 737.867 578.682C747.01 577.85 764.016 567.106 764.016 567.106C758.823 566.229 753.542 565.986 748.29 566.381C738.827 566.957 729.183 571.833 728.084 573.337Z" fill="#D11C50"/>
<path d="M722.761 585.904C725.77 585.691 731.893 585.904 735.201 585.478C738.508 585.051 733.291 590.684 729.109 591.015C725.77 591.271 719.742 586.118 722.761 585.904Z" fill="#898179"/>
<path d="M785.023 617.046C772.349 614.806 764.635 611.243 751.769 611.808C742.05 612.235 740.034 616.267 728.299 616.854C721.961 617.185 719.764 613.91 713.725 612.662C707.932 611.488 694.063 612.736 677.047 615.361L693.37 644.987H757.68L785.023 617.046Z" fill="#E5D4CF"/>
</g>
<path d="M883 625C916.137 625 943 598.137 943 565C943 531.863 916.137 505 883 505C849.863 505 823 531.863 823 565C823 598.137 849.863 625 883 625Z" fill="#A8BFC1"/>
<mask id="mask1_3799_5" style="mask-type:alpha" maskUnits="userSpaceOnUse" x="823" y="505" width="120" height="120">
<path d="M883 625C916.137 625 943 598.137 943 565C943 531.863 916.137 505 883 505C849.863 505 823 531.863 823 565C823 598.137 849.863 625 883 625Z" fill="#A8BFC1"/>
</mask>
<g mask="url(#mask1_3799_5)">
<path d="M874.753 597.343L871.947 624.078C871.328 629.999 873.504 635.718 876.918 637.179L884.322 640.38L886.456 640.049C893.86 638.982 903.238 645.661 896.986 614.445L894.105 595.945L874.753 597.343Z" fill="#C1B3B2"/>
<path d="M883.3 606.422C897.329 606.422 908.702 590.793 908.702 571.514C908.702 552.235 897.329 536.606 883.3 536.606C869.271 536.606 857.898 552.235 857.898 571.514C857.898 590.793 869.271 606.422 883.3 606.422Z" fill="#E5D4CF"/>
<path d="M875.277 589.555C875.277 589.555 884.399 587.368 890.117 590.28C892.432 591.454 887.44 594.644 883.716 594.644C879.993 594.644 875.811 593.374 875.277 589.555Z" fill="#898179"/>
<path d="M895.236 556.781C891.79 548.374 873.44 558.264 867.626 562.99C861.811 567.716 857.896 571.525 857.896 571.525C857.896 571.525 845.531 548.214 851.922 536.383C858.312 524.551 862.675 518.342 877.793 517.745C892.91 517.147 889.133 525.437 897.562 525.138C908.625 524.754 911.751 537.247 914.717 543.477C919.368 553.239 914.429 563.001 910.94 570.405C907.761 577.115 899.599 567.428 895.236 556.781Z" fill="#231C23"/>
<path d="M882.423 570.725C873.12 570.725 864.286 568.794 848.283 568.154C848.283 568.154 867.295 582.407 874.133 581.255C877.792 580.636 879.467 579.804 882.465 579.9C885.463 579.996 887.799 581.394 891.736 581.106C902.821 580.284 917.341 568.495 917.341 568.495C917.341 568.495 896.388 570.746 882.423 570.725Z" fill="#D11C50"/>
<path d="M910.941 617.656C911.501 616.078 912.288 614.59 913.277 613.239C906.021 615.093 898.565 616.046 891.076 616.077C881.741 616.141 871.873 614.562 859.508 611.916C864.575 616.077 862.474 620.142 863.829 626.489C865.51 635.139 866.328 643.934 866.272 652.745C872.827 654.266 879.535 655.032 886.264 655.028C893.825 655.036 901.356 654.068 908.668 652.147C907.954 637.254 908.284 625.017 910.941 617.656Z" fill="#E5D4CF"/>
<path d="M872.619 631.248C870.027 624.324 868.779 613.772 863.359 612.044C849.394 607.638 835.951 617.378 828.227 620.195C818.05 623.982 817.143 622.702 808.395 621.08C817.068 638.908 841.958 636.379 858.654 646.216C871.371 653.684 863.583 656.425 878.786 657.674C877.089 646.92 875.788 639.718 872.619 631.248Z" fill="#F2A99F"/>
<path d="M937.91 619.341C918.707 610.518 904.4 610.081 902.053 617.432C900.687 621.699 894.788 634.085 894.116 635.942C891.16 644.167 900.975 645.287 901.722 661.898C912.391 659.093 914.46 655.497 923.379 649.459C925.385 648.114 927.337 646.692 929.236 645.191L938.571 643.581C938.571 643.581 940.598 640.732 947.608 642.514C947.746 642.279 955.641 640.113 955.769 639.878C953.539 639.26 940.193 620.387 937.91 619.341Z" fill="#F2A99F"/>
</g>
<circle cx="1037" cy="565" r="60" fill="#231C23"/>
<mask id="mask2_3799_5" style="mask-type:alpha" maskUnits="userSpaceOnUse" x="977" y="505" width="120" height="120">
<path d="M1037 625C1070.14 625 1097 598.137 1097 565C1097 531.863 1070.14 505 1037 505C1003.86 505 977 531.863 977 565C977 598.137 1003.86 625 1037 625Z" fill="#231C23"/>
</mask>
<g mask="url(#mask2_3799_5)">
<path d="M1027.6 596.042L1024.03 618.446C1024.03 618.446 1038.32 625.424 1049.76 618.809L1046.9 595.68L1027.6 596.042Z" fill="#C1B3B2"/>
<path d="M1036.89 605.057C1050.79 605.057 1062.05 589.577 1062.05 570.481C1062.05 551.384 1050.79 535.904 1036.89 535.904C1023 535.904 1011.74 551.384 1011.74 570.481C1011.74 589.577 1023 605.057 1036.89 605.057Z" fill="#E5D4CF"/>
<path d="M1005.55 566.714C1004.14 561.205 1004.04 555.444 1005.25 549.887C1006.46 544.331 1008.94 539.134 1012.52 534.709C1023.26 521.426 1021.72 516.732 1039.39 521.426C1059.14 526.665 1061.66 530.804 1065.5 542.518C1069.34 554.232 1060.98 581.053 1060.98 581.053C1060.98 581.053 1064.59 566.405 1057.05 558.926C1048.1 550.05 1046.3 555.022 1046.3 555.022C1046.3 555.022 1041.69 562.831 1029.4 568.304C1017.11 573.777 1010.98 576.903 1010.98 576.903C1010.98 576.903 1006.7 570.374 1005.55 566.714Z" fill="#898179"/>
<path d="M1036.07 572.87C1026.86 573.158 1018.07 571.547 1002.14 571.451C1002.14 571.451 1021.42 584.936 1028.15 583.56C1031.76 582.835 1033.34 581.949 1036.36 581.949C1039.38 581.949 1041.69 583.251 1045.58 582.835C1056.52 581.661 1070.49 569.499 1070.49 569.499C1070.49 569.499 1049.9 572.433 1036.07 572.87Z" fill="#D11C50"/>
<path d="M1028.68 590.164C1028.68 590.164 1038.47 587.827 1044.61 590.943C1047.08 592.212 1041.73 595.637 1037.7 595.637C1033.68 595.637 1029.25 594.271 1028.68 590.164Z" fill="#898179"/>
<path d="M1051.49 612.28C1039.15 615.63 1032.48 615.598 1023.64 612.472C1015.16 609.474 1000.25 612.6 987.551 619.311C973.842 626.565 966.32 639.4 955.3 652.714C953.795 654.528 952.291 656.266 950.766 657.952H1108.48L1102.2 612.621C1081.34 614.136 1057.06 610.776 1051.49 612.28Z" fill="#898179"/>
</g>
<path d="M575 625C608.137 625 635 598.137 635 565C635 531.863 608.137 505 575 505C541.863 505 515 531.863 515 565C515 598.137 541.863 625 575 625Z" fill="#1C2D30"/>
<mask id="mask3_3799_5" style="mask-type:alpha" maskUnits="userSpaceOnUse" x="515" y="505" width="120" height="120">
<path d="M575 625C608.137 625 635 598.137 635 565C635 531.863 608.137 505 575 505C541.863 505 515 531.863 515 565C515 598.137 541.863 625 575 625Z" fill="#1C2D30"/>
</mask>
<g mask="url(#mask3_3799_5)">
<path d="M595.633 611.376C603.25 585.302 603.474 580.245 605.597 554.662C607.069 537.059 584.484 527.009 584.484 527.009C581.283 524.619 592.411 550.789 585.359 574.665C578.958 596.376 586.874 599.342 585.263 622.823H595.387C594.489 619.049 594.574 615.108 595.633 611.376Z" fill="#F2A99F"/>
<path d="M566.88 597.347L564.533 619.132H580.568L579.202 597.048L566.88 597.347Z" fill="#C1B3B2"/>
<path d="M572.727 602.916C584.877 602.916 594.726 587.726 594.726 568.99C594.726 550.253 584.877 535.063 572.727 535.063C560.578 535.063 550.729 550.253 550.729 568.99C550.729 587.726 560.578 602.916 572.727 602.916Z" fill="#E5D4CF"/>
<path d="M563.946 526.017C557.225 529.441 550.6 534.018 546.492 550.341C543.228 563.346 547.559 565.362 546.738 587.297C546.45 595.501 546.546 604.804 551.005 609.776C555.849 615.11 562.666 616.465 562.293 614.502C560.97 607.642 556.318 593.634 555.55 583.318C553.491 556.006 557.908 550.629 571.553 551.387C590.33 552.453 586.777 566.675 589.295 574.068C591.3 579.936 597.563 588.695 599.515 580.736C601.467 572.777 599.323 537.955 593.061 529.196C586.798 520.437 574.508 520.64 563.946 526.017Z" fill="#F2A99F"/>
<path d="M571.917 568.851C567.03 568.958 567.894 565.906 559.637 566.194C553.076 566.429 550.782 569.032 545.384 571.817C545.384 571.817 557.685 582.592 568.449 576.863C571.5 575.231 572.119 575.583 574.488 577.013C578.147 579.242 582.062 579.722 586.788 578.88C592.934 577.813 597.308 572.745 598.62 572.222C598.62 572.222 588.762 566.76 583.3 566.76C577.838 566.76 576.088 568.755 571.917 568.851Z" fill="#D11C50"/>
<path d="M565.803 587.991C566.39 587.244 567.318 587.745 569.91 587.799C572.699 587.972 575.497 587.904 578.274 587.596C581.155 586.902 578.125 592.322 572.652 592.472C568.246 592.589 564.832 589.228 565.803 587.991Z" fill="#898179"/>
<path d="M614.985 612.293C613.524 607.236 595.974 605.657 582.724 612.293C569.473 618.929 561.792 614.246 551.635 610.405C544.487 607.706 539.238 610.266 533.445 616.507C528.997 621.308 529.029 633.065 528.794 639.647H615.391C617.023 628.669 617.791 621.906 614.985 612.293Z" fill="#A8BFC1"/>
</g>
<path d="M1345 625C1378.14 625 1405 598.137 1405 565C1405 531.863 1378.14 505 1345 505C1311.86 505 1285 531.863 1285 565C1285 598.137 1311.86 625 1345 625Z" fill="#F2A99F"/>
<mask id="mask4_3799_5" style="mask-type:alpha" maskUnits="userSpaceOnUse" x="1285" y="505" width="120" height="120">
<path d="M1345 625C1378.14 625 1405 598.137 1405 565C1405 531.863 1378.14 505 1345 505C1311.86 505 1285 531.863 1285 565C1285 598.137 1311.86 625 1345 625Z" fill="#F2A99F"/>
</mask>
<g mask="url(#mask4_3799_5)">
<path d="M1336.2 603.481C1331.45 604.932 1323.2 606.81 1314.58 609.189C1304.12 612.08 1305.12 631.049 1298.17 640.597C1294.72 645.345 1310.84 646.273 1320.86 647.596C1346.58 651.01 1392.96 648.663 1391.71 636.927C1389.97 620.668 1384.47 615.452 1374.98 610.704C1368.77 607.6 1359.06 605.37 1353.95 603.652C1345.63 600.878 1341.28 601.924 1336.2 603.481Z" fill="#1C2D30"/>
<path d="M1338.78 589.058C1338.78 589.058 1338.98 599.353 1336.91 603.204C1335.67 605.551 1335 606.832 1332.27 607.642C1329.18 608.56 1325.55 609.851 1325.36 611.355C1325.05 613.734 1333.71 616.113 1344.25 616.113C1353.19 616.113 1362.93 614.769 1362.83 611.771C1362.77 610.224 1358.81 608.677 1356.05 607.642C1354.52 607.172 1353.17 606.232 1352.2 604.954C1349.31 601.241 1350.23 592.621 1349 589.164C1347.55 585.078 1338.78 589.058 1338.78 589.058Z" fill="#C1B3B2"/>
<path d="M1338.32 518.859C1332.89 520.011 1318.82 528.268 1316.34 546.917C1314.38 561.65 1322.28 580.747 1328.61 583.574C1334.95 586.401 1357.54 583.98 1363.08 578.731C1368.63 573.482 1373.58 547.792 1371.2 539.684C1368.82 531.576 1359.32 514.388 1338.32 518.859Z" fill="#232A33"/>
<path d="M1343.84 595.63C1356.84 595.63 1367.38 581.157 1367.38 563.304C1367.38 545.451 1356.84 530.978 1343.84 530.978C1330.83 530.978 1320.29 545.451 1320.29 563.304C1320.29 581.157 1330.83 595.63 1343.84 595.63Z" fill="#E5D4CF"/>
<path d="M1337.86 578.998C1340.69 578.795 1346.4 578.997 1349.52 578.592C1352.65 578.187 1347.74 583.478 1343.82 583.777C1340.68 584.022 1335.04 579.19 1337.86 578.998Z" fill="#898179"/>
<path d="M1325.38 529.314C1325.38 529.314 1328.48 548.677 1335.84 555.985C1335.84 555.985 1334.68 545.145 1334.68 540.878C1334.68 540.878 1336.61 555.409 1344.55 560.434C1344.55 560.434 1357.36 541.913 1355.84 526.422L1325.38 529.314Z" fill="#232A33"/>
<path d="M1331.21 522.859C1331.21 522.859 1319.85 526.988 1314.95 547.909C1310.05 568.83 1305.83 577.258 1298.16 573.204C1298.16 573.204 1304.1 581.985 1309.52 579.403C1309.52 579.403 1310.36 595.406 1324.02 596.931C1324.02 596.931 1320.24 594.606 1320.04 591.512C1323.8 594.149 1327.98 596.123 1332.4 597.347C1332.4 597.347 1320.04 579.339 1325.66 559.655C1334.83 527.447 1325.87 531.192 1331.21 522.859Z" fill="#232A33"/>
<path d="M1352.17 540.963C1352.17 540.963 1370.56 577.076 1355.46 594.893C1355.46 594.893 1362.29 593.474 1366.56 589.089C1366.56 589.089 1366.27 594.68 1362.66 595.971C1362.66 595.971 1379.73 594.594 1379.56 578.015C1379.56 578.015 1384.69 578.357 1388.54 572.681C1388.54 572.681 1381.72 572.233 1379.46 565.693C1373.52 548.527 1377.66 543.225 1365.98 528.961C1358.94 520.426 1349.72 532.727 1352.17 540.963Z" fill="#232A33"/>
<path d="M1342.86 567.208C1337.54 563.233 1331.01 561.217 1324.38 561.501C1313.98 562.013 1311.58 563.634 1311.58 563.634C1311.58 563.634 1329.5 574.303 1336.71 572.255C1340.25 571.188 1341.63 570.729 1342.95 570.761C1345.93 570.825 1346.83 572.649 1352.03 572.18C1360.57 571.39 1376.57 561.319 1376.57 561.319C1371.7 560.501 1366.74 560.275 1361.81 560.647C1352.94 561.223 1343.88 565.8 1342.86 567.208Z" fill="#D11C50"/>
</g>
<path d="M1191 625C1224.14 625 1251 598.137 1251 565C1251 531.863 1224.14 505 1191 505C1157.86 505 1131 531.863 1131 565C1131 598.137 1157.86 625 1191 625Z" fill="#E7E7E7"/>
<mask id="mask5_3799_5" style="mask-type:alpha" maskUnits="userSpaceOnUse" x="1131" y="505" width="120" height="120">
<path d="M1191 625C1224.14 625 1251 598.137 1251 565C1251 531.863 1224.14 505 1191 505C1157.86 505 1131 531.863 1131 565C1131 598.137 1157.86 625 1191 625Z" fill="#F3F3F3"/>
</mask>
<g mask="url(#mask5_3799_5)">
<path d="M1180.84 598.585L1177.95 617.223C1177.31 621.351 1179.55 625.342 1183.08 626.355L1190.73 628.564L1192.98 628.329C1200.63 627.55 1205.79 619.015 1203.86 610.469L1200.89 597.571L1180.84 598.585Z" fill="#C1B3B2"/>
<path d="M1190.37 604.538C1203.62 604.538 1214.36 588.652 1214.36 569.054C1214.36 549.457 1203.62 533.571 1190.37 533.571C1177.12 533.571 1166.38 549.457 1166.38 569.054C1166.38 588.652 1177.12 604.538 1190.37 604.538Z" fill="#E5D4CF"/>
<path d="M1185.09 586.625C1187.76 586.391 1193.21 586.625 1196.13 586.156C1199.05 585.686 1194.44 591.853 1190.72 592.205C1187.82 592.482 1182.41 586.86 1185.09 586.625Z" fill="#898179"/>
<path d="M1171.64 552.283C1174.1 546.864 1178.81 545.722 1186.23 548.581C1195 551.974 1201.16 547.056 1205.96 548.517C1210.77 549.979 1211.6 561.064 1212.97 569.054C1214.49 577.771 1217.95 578.443 1219.84 550.918C1221.35 529.165 1209.1 520.107 1197.81 521.569C1186.53 523.03 1181.96 511.615 1172.97 524.972C1163.97 538.329 1156.77 537.774 1157.96 550.16C1159.14 562.547 1162.28 576.106 1166.21 578.208C1169.18 579.787 1164.52 568.606 1168.09 563.891C1171.67 559.175 1170.16 555.569 1171.64 552.283Z" fill="#231C23"/>
<path d="M1174.37 577.61C1182.13 577.61 1188.43 574.534 1188.43 570.74C1188.43 566.945 1182.13 563.869 1174.37 563.869C1166.6 563.869 1160.3 566.945 1160.3 570.74C1160.3 574.534 1166.6 577.61 1174.37 577.61Z" fill="#D11C50"/>
<path d="M1205.5 577.61C1213.26 577.61 1219.56 574.534 1219.56 570.74C1219.56 566.945 1213.26 563.869 1205.5 563.869C1197.73 563.869 1191.44 566.945 1191.44 570.74C1191.44 574.534 1197.73 577.61 1205.5 577.61Z" fill="#D11C50"/>
<path d="M1197.05 568.339H1184.3V572.457H1197.05V568.339Z" fill="#D11C50"/>
<path d="M1250.6 615.014C1250.6 615.014 1233.53 610.811 1219.47 611.387C1205.41 611.963 1208.23 616.455 1192.47 616.54C1179.67 616.604 1180.19 611.035 1167.71 610.523C1154.29 609.979 1146.49 612.827 1124.75 616.07L1138.07 646.871H1251.61C1250.89 628.158 1250.6 615.014 1250.6 615.014Z" fill="#6C97A4"/>
</g>
<g filter="url(#filter0_d_3799_5)">
<rect x="744.5" y="694.5" width="412.1" height="254" rx="9.5" fill="#FCFCFC" stroke="#DDDDDD"/>
<path d="M835.799 913.3C873.824 913.3 904.649 882.475 904.649 844.45C904.649 806.425 873.824 775.6 835.799 775.6C797.774 775.6 766.949 806.425 766.949 844.45C766.949 882.475 797.774 913.3 835.799 913.3Z" fill="#F3F3F3"/>
<path d="M1095.48 714.876V726.55H1096.55V714.876H1095.48ZM1087.67 715.864V723.729H1093.15V715.864H1092.1V718.945H1088.72V715.864H1087.67ZM1088.72 719.79H1092.1V722.858H1088.72V719.79ZM1108.52 714.889H1107.45V720.882H1108.52V714.889ZM1103.98 719.439H1100.61V716.371H1103.98V719.439ZM1105.02 715.526H1099.57V720.284H1105.02V715.526ZM1102.04 725.562V724.275H1108.52V721.467H1100.96V722.299H1107.46V723.482H1101V726.407H1108.92V725.562H1102.04ZM1112.39 717.164H1115.68V716.293H1111.34V723.664H1112.1C1113.85 723.664 1115.03 723.612 1116.42 723.313L1116.33 722.429C1115.06 722.702 1113.95 722.767 1112.39 722.78V717.164ZM1119.8 714.876V719.556H1118.15V715.136H1117.15V725.952H1118.15V720.427H1119.8V726.537H1120.83V714.876H1119.8ZM1129.8 716.111H1126.88V714.811H1125.82V716.111H1122.92V716.969H1129.8V716.111ZM1124.58 719.673C1124.58 718.906 1125.29 718.399 1126.35 718.399C1127.42 718.399 1128.13 718.906 1128.13 719.673C1128.13 720.453 1127.42 720.96 1126.35 720.96C1125.29 720.96 1124.58 720.453 1124.58 719.673ZM1129.15 719.673C1129.15 718.399 1128.02 717.567 1126.35 717.567C1124.7 717.567 1123.57 718.399 1123.57 719.673C1123.57 720.96 1124.7 721.779 1126.35 721.779C1128.02 721.779 1129.15 720.96 1129.15 719.673ZM1124.36 723.677H1130.86V726.55H1131.93V722.806H1124.36V723.677ZM1133.66 718.1H1131.93V714.889H1130.86V722.169H1131.93V718.984H1133.66V718.1Z" fill="#252525"/>
<path d="M954.359 839.038H955.719V841.197H954.359V839.038ZM960.989 839.038H962.366V841.197H960.989V839.038ZM962.23 845.974V842.982H964.576V834.992H962.366V837.27H960.989V834.992H958.83V842.982H959.986V845.974H956.739V842.982H957.878V834.992H955.719V837.287H954.359V834.992H952.149V842.982H954.495V845.974H951.282V847.793H965.443V845.974H962.23ZM975.114 846.059V843.73H979.857V841.928H970.779V840.177H979.5V834.958H968.535V836.743H977.29V838.426H968.552V843.73H972.87V846.059H966.92V847.895H981.098V846.059H975.114ZM989.597 847.98C987.404 847.98 986.384 847.708 986.384 847.079C986.384 846.467 987.404 846.195 989.597 846.195C991.807 846.195 992.827 846.467 992.827 847.079C992.827 847.708 991.807 847.98 989.597 847.98ZM989.597 844.546C986.112 844.546 984.106 845.43 984.106 847.079C984.106 848.745 986.112 849.629 989.597 849.629C993.082 849.629 995.088 848.745 995.088 847.079C995.088 845.43 993.082 844.546 989.597 844.546ZM990.77 842.098V841.129H995.326V839.429H986.537V838.494H995.003V834.329H984.293V836.029H992.793V836.93H984.327V841.129H988.526V842.098H982.559V843.849H996.737V842.098H990.77ZM1015.96 835.91H1010.61V834.108H1008.36V835.91H1003.04V837.695H1015.96V835.91ZM1006.48 841.418C1006.48 840.534 1007.53 840.092 1009.47 840.092C1011.44 840.092 1012.5 840.534 1012.5 841.418C1012.5 842.319 1011.44 842.727 1009.47 842.727C1007.53 842.727 1006.48 842.319 1006.48 841.418ZM1010.61 846.229V844.427C1013.21 844.172 1014.79 843.101 1014.79 841.418C1014.79 839.497 1012.75 838.358 1009.47 838.358C1006.22 838.358 1004.17 839.497 1004.17 841.418C1004.17 843.101 1005.76 844.189 1008.36 844.427V846.229H1002.43V848.048H1016.63V846.229H1010.61ZM1018.63 837.916V842.744H1019.97C1023.1 842.744 1025.09 842.676 1027.27 842.268L1027.08 840.466C1025.12 840.823 1023.41 840.925 1020.86 840.942V839.582H1025.75V834.873H1018.61V836.675H1023.54V837.916H1018.63ZM1025.24 847.912C1023.2 847.912 1022.15 847.521 1022.15 846.654C1022.15 845.787 1023.2 845.396 1025.24 845.396C1027.28 845.396 1028.34 845.787 1028.34 846.654C1028.34 847.521 1027.28 847.912 1025.24 847.912ZM1025.24 843.679C1021.98 843.679 1019.94 844.767 1019.94 846.654C1019.94 848.524 1021.98 849.629 1025.24 849.629C1028.51 849.629 1030.55 848.524 1030.55 846.654C1030.55 844.767 1028.51 843.679 1025.24 843.679ZM1030.39 837.61V833.972H1028.15V843.356H1030.39V839.446H1032.47V837.61H1030.39ZM1044.44 833.938V849.646H1046.68V833.938H1044.44ZM1038.26 835.043C1035.9 835.043 1034.15 837.185 1034.15 840.619C1034.15 844.07 1035.9 846.229 1038.26 846.229C1040.63 846.229 1042.38 844.07 1042.38 840.619C1042.38 837.185 1040.63 835.043 1038.26 835.043ZM1038.26 837.066C1039.42 837.066 1040.22 838.307 1040.22 840.619C1040.22 842.948 1039.42 844.189 1038.26 844.189C1037.11 844.189 1036.31 842.948 1036.31 840.619C1036.31 838.307 1037.11 837.066 1038.26 837.066Z" fill="#252525"/>
<path d="M935.762 716.757H932.277V715.295H930.016V716.757H926.548V718.525H935.762V716.757ZM929.455 721.891C929.455 721.109 930.135 720.718 931.155 720.718C932.158 720.718 932.855 721.109 932.855 721.891C932.855 722.69 932.158 723.081 931.155 723.081C930.135 723.081 929.455 722.69 929.455 721.891ZM934.997 721.891C934.997 720.191 933.416 719.018 931.155 719.018C928.911 719.018 927.313 720.191 927.313 721.891C927.313 723.608 928.911 724.781 931.155 724.781C933.416 724.781 934.997 723.608 934.997 721.891ZM928.435 727.637H936.629V731.054H938.873V725.835H928.435V727.637ZM940.947 719.409H938.873V715.397H936.629V725.189H938.873V721.262H940.947V719.409ZM952.183 720.99H953.407V724.951H955.532V715.38H953.407V719.188H952.183V715.669H950.092V724.458H952.183V720.99ZM950.075 722.333C948.018 721.5 947.168 719.817 947.168 718.134V716.315H945.009V718.134C945.009 719.902 944.159 721.84 941.966 722.792L943.156 724.526C944.601 723.914 945.57 722.792 946.131 721.466C946.692 722.588 947.593 723.523 948.885 724.033L950.075 722.333ZM950.228 729.354C948.188 729.354 947.066 728.946 947.066 728.113C947.066 727.28 948.188 726.872 950.228 726.872C952.234 726.872 953.356 727.28 953.356 728.113C953.356 728.946 952.234 729.354 950.228 729.354ZM950.228 725.189C946.93 725.189 944.822 726.294 944.822 728.113C944.822 729.949 946.93 731.037 950.228 731.037C953.509 731.037 955.6 729.949 955.6 728.113C955.6 726.294 953.509 725.189 950.228 725.189ZM959.186 722.01C962.144 721.738 964.065 720.65 964.898 719.154C965.714 720.65 967.652 721.738 970.593 722.01L971.375 720.259C968.4 720.004 966.87 718.967 966.513 717.896H970.695V716.111H959.118V717.896H963.283C962.926 718.967 961.396 720.004 958.438 720.259L959.186 722.01ZM964.864 729.32C962.773 729.32 961.702 728.946 961.702 728.13C961.702 727.314 962.773 726.957 964.864 726.957C966.955 726.957 968.026 727.314 968.026 728.13C968.026 728.946 966.955 729.32 964.864 729.32ZM964.864 725.223C961.481 725.223 959.441 726.294 959.441 728.13C959.441 729.983 961.481 731.037 964.864 731.037C968.247 731.037 970.304 729.983 970.304 728.13C970.304 726.294 968.247 725.223 964.864 725.223ZM957.826 722.605V724.373H971.97V722.605H957.826Z" fill="#252525"/>
<g clip-path="url(#clip0_3799_5)">
<path d="M793.41 717.073C792.276 712.321 788.192 711.839 788.192 711.839C788.575 712.279 788.849 712.802 788.993 713.367C789.137 713.931 789.146 714.521 789.022 715.089C788.035 713.273 785.62 713.179 785.62 713.179C785.62 713.179 788.686 716.031 784.87 719.763C781.72 722.824 779.007 721.929 773.359 723.018C768.635 723.929 767.653 726.404 767.154 727.676C766.393 729.612 767.994 732.239 767.994 732.239C770.335 727.33 778.797 732.846 785.316 730.795C791.835 728.743 794.722 722.589 793.41 717.073ZM776.613 726.781C777.021 726.209 777.566 725.748 778.199 725.44C778.832 725.133 779.532 724.989 780.235 725.022C782.607 725.185 783.033 725.268 783.033 725.268C783.033 725.268 779.747 729 776.624 726.781H776.613Z" fill="#D81A3F"/>
</g>
<line x1="744" y1="744.5" x2="1157.1" y2="744.5" stroke="#DDDDDD"/>
<mask id="mask6_3799_5" style="mask-type:alpha" maskUnits="userSpaceOnUse" x="766" y="775" width="139" height="139">
<path d="M835.801 913.3C873.826 913.3 904.651 882.475 904.651 844.45C904.651 806.425 873.826 775.6 835.801 775.6C797.776 775.6 766.951 806.425 766.951 844.45C766.951 882.475 797.776 913.3 835.801 913.3Z" fill="#F3F3F3"/>
</mask>
<g mask="url(#mask6_3799_5)">
<path d="M814.295 828.847C814.295 828.847 799.017 850.307 805.2 877.314C810.868 902.055 801.808 893.228 812.961 906.548C824.114 919.867 866.827 910.49 866.827 910.49C866.827 910.49 863.595 894.061 865.37 885.822C870.707 861.044 868.283 841.432 861.979 834.025C855.674 826.619 814.295 828.847 814.295 828.847Z" fill="#232A33"/>
<path d="M827.506 885.076L825.082 908.165L846.898 908.764L843.507 883.852L827.506 885.076Z" fill="#C1B3B2"/>
<path d="M829.206 794.814C822.558 796.222 806.301 806.285 803.265 829.092C800.816 847.125 809.569 870.532 817.319 873.984C825.068 877.436 852.711 874.486 859.505 868.071C866.3 861.656 871.013 832.801 868.075 822.934C865.137 813.067 854.902 789.391 829.206 794.814Z" fill="#232A33"/>
<path d="M835.952 888.785C851.861 888.785 864.758 871.081 864.758 849.242C864.758 827.404 851.861 809.7 835.952 809.7C820.043 809.7 807.146 827.404 807.146 849.242C807.146 871.081 820.043 888.785 835.952 888.785Z" fill="#E5D4CF"/>
<path d="M823.416 809.137C816.377 812.345 806.926 828.492 807.171 847.259C807.171 847.259 836.98 849.414 850.802 842.362L848.868 819.592C848.868 819.592 854.315 837.539 854.683 841.469L864.134 839.718C864.134 839.718 862.787 812.063 846.676 807.338C836.723 804.473 830.419 805.93 823.416 809.137Z" fill="#232A33"/>
<path d="M834.753 854.017C828.245 849.156 820.258 846.692 812.142 847.039C799.41 847.663 796.484 849.695 796.484 849.695C796.484 849.695 818.41 862.782 827.237 860.248C831.558 859.024 833.248 858.375 834.864 858.412C838.536 858.498 839.601 860.726 845.979 860.15C856.471 859.195 875.985 846.867 875.985 846.867C870.026 845.861 863.967 845.581 857.94 846.035C847.081 846.696 836.014 852.291 834.753 854.017Z" fill="#D11C50"/>
<path d="M828.644 868.438C832.096 868.193 839.123 868.438 842.918 867.948C846.713 867.459 840.727 873.922 835.928 874.302C832.096 874.596 825.179 868.683 828.644 868.438Z" fill="#898179"/>
<path d="M900.089 904.173C885.545 901.602 876.694 897.514 861.93 898.163C850.777 898.652 848.463 903.28 834.997 903.953C827.725 904.333 825.203 900.574 818.274 899.142C811.627 897.795 795.712 899.228 776.186 902.239L794.916 936.236H868.712L900.089 904.173Z" fill="#E5D4CF"/>
</g>
</g>
<defs>
<filter id="filter0_d_3799_5" x="740" y="694" width="421.1" height="263" filterUnits="userSpaceOnUse" color-interpolation-filters="sRGB">
<feFlood flood-opacity="0" result="BackgroundImageFix"/>
<feColorMatrix in="SourceAlpha" type="matrix" values="0 0 0 0 0 0 0 0 0 0 0 0 0 0 0 0 0 0 127 0" result="hardAlpha"/>
<feOffset dy="4"/>
<feGaussianBlur stdDeviation="2"/>
<feComposite in2="hardAlpha" operator="out"/>
<feColorMatrix type="matrix" values="0 0 0 0 0 0 0 0 0 0 0 0 0 0 0 0 0 0 0.23 0"/>
<feBlend mode="normal" in2="BackgroundImageFix" result="effect1_dropShadow_3799_5"/>
<feBlend mode="normal" in="SourceGraphic" in2="effect1_dropShadow_3799_5" result="shape"/>
</filter>
<clipPath id="clip0_3799_5">
<rect width="26.775" height="20.4" fill="white" transform="translate(766.949 711.85)"/>
</clipPath>
</defs>
</svg>
