<svg width="1920" height="1080" viewBox="0 0 1920 1080" fill="none" xmlns="http://www.w3.org/2000/svg">
<path d="M1920 0H0V1080H1920V0Z" fill="#AD1A3E"/>
<g opacity="0.8">
<path opacity="0.8" d="M795.315 549.243C795.315 547.452 793.87 546 792.088 546C790.306 546 788.861 547.452 788.861 549.243V559.94C788.861 561.731 790.306 563.183 792.088 563.183C793.87 563.183 795.315 561.731 795.315 559.94V549.243Z" fill="#EFC286"/>
<path opacity="0.8" d="M764.605 559.588C763.345 558.321 761.302 558.321 760.041 559.588C758.781 560.854 758.781 562.908 760.041 564.174L767.567 571.738C768.827 573.005 770.87 573.005 772.131 571.738C773.391 570.471 773.391 568.418 772.131 567.151L764.605 559.588Z" fill="#EFC286"/>
<path opacity="0.8" d="M750.227 588.73C748.445 588.73 747 590.182 747 591.973C747 593.765 748.445 595.217 750.227 595.217H760.87C762.652 595.217 764.097 593.765 764.097 591.973C764.097 590.182 762.652 588.73 760.87 588.73H750.227Z" fill="#EFC286"/>
<path opacity="0.8" d="M760.507 619.558C759.247 620.825 759.247 622.878 760.507 624.145C761.768 625.412 763.811 625.412 765.071 624.145L772.596 616.581C773.857 615.315 773.857 613.261 772.596 611.995C771.336 610.728 769.293 610.728 768.033 611.995L760.507 619.558Z" fill="#EFC286"/>
<path opacity="0.8" d="M789.511 634.051C789.511 635.842 790.956 637.294 792.738 637.294C794.52 637.294 795.965 635.842 795.965 634.051V623.354C795.965 621.563 794.52 620.111 792.738 620.111C790.956 620.111 789.511 621.563 789.511 623.354V634.051Z" fill="#EFC286"/>
<path opacity="0.8" d="M820.184 623.686C821.444 624.953 823.487 624.953 824.748 623.686C826.008 622.42 826.008 620.366 824.748 619.1L817.222 611.536C815.962 610.269 813.919 610.269 812.659 611.536C811.398 612.802 811.398 614.856 812.659 616.122L820.184 623.686Z" fill="#EFC286"/>
<path opacity="0.8" d="M834.607 594.563C836.389 594.563 837.834 593.111 837.834 591.319C837.834 589.528 836.389 588.076 834.607 588.076H823.964C822.182 588.076 820.737 589.528 820.737 591.319C820.737 593.111 822.182 594.563 823.964 594.563H834.607Z" fill="#EFC286"/>
<path opacity="0.8" d="M824.276 563.725C825.536 562.459 825.536 560.405 824.276 559.139C823.016 557.872 820.973 557.872 819.712 559.139L812.187 566.702C810.927 567.969 810.927 570.022 812.187 571.289C813.447 572.556 815.49 572.556 816.75 571.289L824.276 563.725Z" fill="#EFC286"/>
</g>
<path d="M792.292 610.608C803.031 610.608 811.737 601.858 811.737 591.064C811.737 580.27 803.031 571.52 792.292 571.52C781.552 571.52 772.846 580.27 772.846 591.064C772.846 601.858 781.552 610.608 792.292 610.608Z" fill="#EFC286"/>
<g style="mix-blend-mode:multiply" opacity="0.4">
<path d="M805.99 577.21L787.365 609.983C788.95 610.41 790.592 610.609 792.29 610.609C803.018 610.609 811.736 601.846 811.736 591.064C811.736 585.63 809.528 580.737 805.99 577.21Z" fill="#EFC286"/>
</g>
<path d="M1172.77 608.901C1173.09 603.552 1168.16 599.143 1163.55 597.891C1161.4 591.518 1153.81 587.251 1145.66 587.251C1145.37 587.251 1145.09 587.251 1144.81 587.251C1141.84 582.756 1136.77 579.797 1131.02 579.797C1123.89 579.797 1117.83 584.321 1115.51 590.665C1107.53 591.234 1101.25 597.919 1101.25 606.084C1101.25 614.249 1108.12 621.532 1116.62 621.532H1116.7C1120.21 624.889 1128.16 628.075 1136.03 628.161C1155.42 628.36 1160.57 619.512 1160.57 619.512C1168.56 619.512 1172.46 614.164 1172.77 608.815V608.901Z" fill="#E5D4CF"/>
<g style="mix-blend-mode:multiply" opacity="0.4">
<path d="M1163.54 597.89C1162.87 595.898 1161.68 594.106 1160.09 592.598C1163.77 606.623 1151.66 611.232 1151.66 611.232C1149.17 622.953 1136.82 625.656 1127.74 627.05C1130.37 627.733 1133.2 628.159 1136 628.188C1155.39 628.387 1160.54 619.539 1160.54 619.539C1168.53 619.539 1172.43 614.191 1172.74 608.842C1173.06 603.494 1168.13 599.084 1163.52 597.833L1163.54 597.89Z" fill="#CCBEBA"/>
</g>
<path d="M816.238 719.455C810.52 719.455 805.906 724.121 805.906 729.839V847.504C805.906 853.251 810.548 857.888 816.238 857.888H965.889V719.455H816.238Z" fill="#DBD5D5"/>
<path d="M1115.51 719.455H965.859V857.888H1115.51C1121.23 857.888 1125.84 853.222 1125.84 847.504V729.839C1125.84 724.092 1121.2 719.455 1115.51 719.455Z" fill="#BCB3B3"/>
<path d="M850.876 778.259H835.195C834.035 778.259 833.072 779.197 833.072 780.392V796.153H850.876V778.259Z" fill="#CDE7E8"/>
<path d="M866.556 778.259H850.875V796.153H868.679V780.392C868.679 779.226 867.745 778.259 866.556 778.259Z" fill="#9FC8CE"/>
<path d="M850.875 814.048H866.556C867.717 814.048 868.679 813.109 868.679 811.914V796.153H850.875V814.048Z" fill="#90B7BA"/>
<path d="M833.072 796.153V811.914C833.072 813.08 834.006 814.048 835.195 814.048H850.876V796.153H833.072Z" fill="#9FC8CE"/>
<path d="M1080.89 778.259H1065.21C1064.05 778.259 1063.08 779.197 1063.08 780.392V796.153H1080.89V778.259Z" fill="#B9D9DB"/>
<path d="M1096.57 778.259H1080.89V796.153H1098.7V780.392C1098.7 779.226 1097.76 778.259 1096.57 778.259Z" fill="#8EBBBF"/>
<path d="M1080.89 814.048H1096.57C1097.73 814.048 1098.7 813.109 1098.7 811.914V796.153H1080.89V814.048Z" fill="#7CA4A5"/>
<path d="M1063.06 796.154V811.914C1063.06 813.081 1063.99 814.048 1065.18 814.048H1080.86V796.154H1063.06Z" fill="#8EBBBF"/>
<path d="M1145.28 727.647L1116.02 655.728C1114.37 651.717 1110.21 649.071 1105.57 649.071H965.855V741.53H1134.84C1142.62 741.53 1148 734.361 1145.28 727.647Z" fill="#CC3737"/>
<path d="M826.171 649.071C821.529 649.071 817.368 651.717 815.726 655.728L786.458 727.647C783.713 734.361 789.119 741.53 796.903 741.53H965.887V649.071H826.171Z" fill="#DD3E3E"/>
<g style="mix-blend-mode:multiply" opacity="0.3">
<path d="M1011.88 649.071V739.055L1063.77 649.071H1011.88Z" fill="#D34F4C"/>
</g>
<path d="M1111.69 646.568H817.68C815.257 646.568 813.293 648.542 813.293 650.978V651.006C813.293 653.442 815.257 655.416 817.68 655.416H1111.69C1114.11 655.416 1116.08 653.442 1116.08 651.006V650.978C1116.08 648.542 1114.11 646.568 1111.69 646.568Z" fill="#726B65"/>
<path d="M965.295 606.028V554.791" stroke="#E88080" stroke-width="1.85" stroke-linecap="round" stroke-linejoin="round"/>
<path d="M1008.57 777.292H923.205C918.902 777.292 915.449 773.793 915.449 769.497V651.405C915.449 649.101 916.468 646.91 918.223 645.431L960.908 614.535C963.795 612.088 968.041 612.088 970.928 614.535L1013.61 645.431C1015.37 646.91 1016.39 649.101 1016.39 651.405V769.497C1016.39 773.821 1012.91 777.292 1008.63 777.292H1008.57Z" fill="#E5D4CF"/>
<path d="M916.268 648.844L965.887 608.105L1015.48 648.844" stroke="#C62855" stroke-width="5.17" stroke-linecap="round" stroke-linejoin="round"/>
<path d="M1027.79 866.365H903.955C897.728 866.365 892.689 861.301 892.689 855.043V757.32C892.689 753.992 894.161 750.806 896.709 748.672L958.613 701.475C962.802 697.919 968.944 697.919 973.134 701.475L1035.04 748.672C1037.59 750.834 1039.06 753.992 1039.06 757.32V855.043C1039.06 861.301 1034.02 866.365 1027.79 866.365Z" fill="#F4ECE9"/>
<path d="M893.906 753.65L965.887 692.172L1037.84 753.65" stroke="#E02D58" stroke-width="5.17" stroke-linecap="round" stroke-linejoin="round"/>
<path d="M989.694 802.64H965.889V871.487H989.694C993.373 871.487 996.345 868.443 996.345 864.688V809.468C996.345 805.713 993.373 802.669 989.694 802.669V802.64Z" fill="#CC3737"/>
<path d="M942.056 802.639C938.376 802.639 935.404 805.683 935.404 809.439V864.658C935.404 868.414 938.376 871.458 942.056 871.458H965.861V802.611H942.056V802.639Z" fill="#DD3E3E"/>
<path d="M994.959 798.231H936.791C933.398 798.231 930.648 800.988 930.648 804.39C930.648 807.792 933.398 810.549 936.791 810.549H994.959C998.351 810.549 1001.1 807.792 1001.1 804.39C1001.1 800.988 998.351 798.231 994.959 798.231Z" fill="#A8A1A1"/>
<path d="M965.894 779.227C975.852 779.227 983.925 771.113 983.925 761.105C983.925 751.096 975.852 742.983 965.894 742.983C955.936 742.983 947.863 751.096 947.863 761.105C947.863 771.113 955.936 779.227 965.894 779.227Z" fill="#F2E7E4" stroke="#E06F58" stroke-width="3" stroke-miterlimit="10"/>
<path d="M963.735 762.983C961.358 762.784 956.319 761.902 954.649 757.89C954.451 757.407 954.989 756.781 955.555 756.838C957.905 757.065 962.915 758.033 964.641 761.902C964.839 762.385 964.33 763.011 963.764 762.954L963.735 762.983Z" fill="#1C2D30"/>
<path d="M966.312 761.731C967.303 759.569 970.247 754.733 977.21 753.168C977.748 753.054 978.229 753.652 977.974 754.164C976.757 756.639 973.417 761.959 967.02 762.727C966.511 762.784 966.086 762.215 966.312 761.731Z" fill="#1C2D30"/>
<path d="M965.293 659.882C969.295 659.882 972.539 656.622 972.539 652.599C972.539 648.577 969.295 645.317 965.293 645.317C961.291 645.317 958.047 648.577 958.047 652.599C958.047 656.622 961.291 659.882 965.293 659.882Z" fill="#2C494C"/>
<path d="M968.487 658.999C968.487 657.223 967.055 655.784 965.288 655.784C963.522 655.784 962.09 657.223 962.09 658.999V669.753C962.09 671.528 963.522 672.967 965.288 672.967C967.055 672.967 968.487 671.528 968.487 669.753V658.999Z" fill="#2C494C"/>
<path opacity="0.7" d="M847.911 672.571H831.437C829.576 672.571 828.068 674.086 828.068 675.956V676.184C828.068 678.054 829.576 679.569 831.437 679.569H847.911C849.771 679.569 851.279 678.054 851.279 676.184V675.956C851.279 674.086 849.771 672.571 847.911 672.571Z" fill="#F28E81"/>
<path opacity="0.5" d="M1101.05 675.558H1084.58C1082.72 675.558 1081.21 677.074 1081.21 678.944V679.171C1081.21 681.041 1082.72 682.557 1084.58 682.557H1101.05C1102.91 682.557 1104.42 681.041 1104.42 679.171V678.944C1104.42 677.074 1102.91 675.558 1101.05 675.558Z" fill="#F28E81"/>
<path opacity="0.3" d="M1072.77 698.488H1056.3C1054.44 698.488 1052.93 700.003 1052.93 701.873V702.101C1052.93 703.971 1054.44 705.486 1056.3 705.486H1072.77C1074.63 705.486 1076.14 703.971 1076.14 702.101V701.873C1076.14 700.003 1074.63 698.488 1072.77 698.488Z" fill="#F28E81"/>
<path d="M874.264 694.789H855.355C853.323 694.789 851.676 696.445 851.676 698.488V698.516C851.676 700.559 853.323 702.215 855.355 702.215H874.264C876.296 702.215 877.943 700.559 877.943 698.516V698.488C877.943 696.445 876.296 694.789 874.264 694.789Z" fill="#F28E81"/>
<path opacity="0.6" d="M832.232 717.748H813.324C811.292 717.748 809.645 719.404 809.645 721.447V721.475C809.645 723.518 811.292 725.174 813.324 725.174H832.232C834.265 725.174 835.912 723.518 835.912 721.475V721.447C835.912 719.404 834.265 717.748 832.232 717.748Z" fill="#F28E81"/>
<path opacity="0.3" d="M1120.94 717.748H1095.52C1093.55 717.748 1091.96 719.353 1091.96 721.333V721.361C1091.96 723.341 1093.55 724.946 1095.52 724.946H1120.94C1122.91 724.946 1124.51 723.341 1124.51 721.361V721.333C1124.51 719.353 1122.91 717.748 1120.94 717.748Z" fill="#F28E81"/>
<path d="M989.101 558.092C975.118 556.641 971.127 554.081 971.127 554.081L970.9 575.275C970.9 575.275 976.59 579.628 990.488 578.462C993.516 574.564 997.536 568.22 1001.56 558.377C998.215 558.633 994.111 558.633 989.101 558.092Z" fill="#F9A09B"/>
<path d="M1001.58 558.377C997.562 568.249 993.542 574.565 990.514 578.462C990.797 578.462 991.08 578.405 991.363 578.377C1012.22 576.357 1013.1 555.617 1013.1 555.617C1013.1 555.617 1009.65 557.723 1001.58 558.349V558.377Z" fill="#F28181"/>
<g filter="url(#filter0_d_3799_2)">
<path d="M764.86 875.61C754.954 875.866 748.075 886.848 752.095 892.424C756.114 898 771.541 900.93 776.268 893.363C780.995 885.795 778.617 875.241 764.86 875.61Z" fill="#E5D4CF"/>
</g>
<g filter="url(#filter1_d_3799_2)">
<path d="M798.91 886.848C793.447 886.62 783.455 902.068 790.645 904.458C797.834 906.847 812.185 906.819 814.959 902.552C817.733 898.284 816.969 887.559 798.91 886.848Z" fill="#ADA5A5"/>
</g>
<g filter="url(#filter2_d_3799_2)">
<path d="M844.568 894.985C838.737 892.709 832.878 902.04 836.84 904.373C840.803 906.706 848.757 905.397 850.002 901.5C851.248 897.602 849.012 896.72 844.568 894.985Z" fill="#E5D4CF"/>
</g>
<g filter="url(#filter3_d_3799_2)">
<path d="M1138.1 898.114C1142.26 897.118 1152.17 907.417 1147.04 910.319C1141.92 913.22 1130.94 915.382 1128.19 912.538C1125.45 909.693 1124.43 901.386 1138.1 898.114Z" fill="#ADA5A5"/>
</g>
<g filter="url(#filter4_d_3799_2)">
<path d="M1155.56 884.202C1161.65 882.069 1167.39 891.912 1163.2 894.188C1159.01 896.464 1150.83 894.814 1149.7 890.746C1148.57 886.677 1150.89 885.852 1155.56 884.231V884.202Z" fill="#E5D4CF"/>
</g>
<path d="M558.449 223.496V282.632H566.897V223.496H558.449ZM520.945 228.232V268.872H550.001V228.232H541.617V242.504H529.329V228.232H520.945ZM529.329 249.096H541.617V262.152H529.329V249.096ZM625.836 223.56H617.388V253.256H625.836V223.56ZM600.236 244.808H588.204V233.096H600.236V244.808ZM608.492 226.504H579.884V251.464H608.492V226.504ZM594.988 275.528V271.816H625.836V255.88H586.604V262.344H617.516V265.8H586.668V282.056H627.372V275.528H594.988ZM645.799 237.192H659.303V230.344H637.479V269.256H641.575C649.127 269.256 655.399 269 662.567 267.656L661.927 260.808C656.295 261.832 651.303 262.152 645.799 262.28V237.192ZM678.375 223.496V246.216H673.062V224.648H665.191V279.752H673.062V253H678.375V282.504H686.375V223.496H678.375ZM729.378 228.744H716.258V223.24H707.746V228.744H694.69V235.4H729.378V228.744ZM705.634 248.072C705.634 245.128 708.194 243.656 712.034 243.656C715.81 243.656 718.434 245.128 718.434 248.072C718.434 251.08 715.81 252.552 712.034 252.552C708.194 252.552 705.634 251.08 705.634 248.072ZM726.498 248.072C726.498 241.672 720.546 237.256 712.034 237.256C703.586 237.256 697.57 241.672 697.57 248.072C697.57 254.536 703.586 258.952 712.034 258.952C720.546 258.952 726.498 254.536 726.498 248.072ZM701.794 269.704H732.642V282.568H741.09V262.92H701.794V269.704ZM748.898 238.728H741.09V223.624H732.642V260.488H741.09V245.704H748.898V238.728ZM766.812 262.6C763.613 262.6 761.693 258.184 761.693 249.096C761.693 240.072 763.613 235.656 766.812 235.656C770.077 235.656 771.933 240.072 771.933 249.096C771.933 258.184 770.077 262.6 766.812 262.6ZM784.157 245.256H779.485C778.525 234.248 773.789 227.72 766.812 227.72C759.005 227.72 754.077 235.784 754.077 249.096C754.077 262.472 759.005 270.536 766.812 270.536C773.981 270.536 778.781 263.624 779.549 252.104H784.157V279.88H792.029V224.52H784.157V245.256ZM796.125 223.496V282.44H804.125V223.496H796.125ZM841.369 242.824C841.369 236.808 846.937 233.288 855.001 233.288C863.129 233.288 868.697 236.808 868.697 242.824C868.697 248.84 863.129 252.36 855.001 252.36C846.937 252.36 841.369 248.84 841.369 242.824ZM859.225 268.808V258.824C869.657 257.608 877.017 251.592 877.017 242.824C877.017 232.968 867.609 226.568 855.001 226.568C842.457 226.568 833.049 232.968 833.049 242.824C833.049 251.592 840.409 257.544 850.777 258.824V268.808H828.377V275.656H881.753V268.808H859.225ZM936.212 223.624H927.7V266.568H936.212V223.624ZM923.348 250.952C913.748 247.88 909.652 240.328 909.652 232.52V226.824H901.076V232.52C901.076 240.392 896.852 248.648 887.06 251.976L891.348 258.696C898.196 256.328 902.804 251.528 905.492 245.576C908.052 251.08 912.532 255.432 919.06 257.672L923.348 250.952ZM905.428 274.76V262.472H896.98V281.48H937.684V274.76H905.428ZM1002.9 262.728H1011.34V223.56H1002.9V239.176H992.721V246.024H1002.9V262.728ZM965.841 227.976V234.76H983.377C982.161 243.208 975.953 249.672 962.833 253.64L966.353 260.232C984.081 254.664 992.465 244.104 992.465 227.976H965.841ZM995.729 258.376H987.345V260.296C987.345 267.016 981.393 273.864 968.913 275.784L972.177 282.44C981.393 280.84 987.985 276.616 991.505 270.984C995.025 276.616 1001.55 280.776 1010.77 282.312L1014.1 275.72C1001.62 273.8 995.729 266.952 995.729 260.296V258.376ZM1047.56 230.6C1056.14 230.6 1060.17 231.816 1060.17 234.44C1060.17 237.192 1056.14 238.344 1047.56 238.344C1039.05 238.344 1035.02 237.192 1035.02 234.44C1035.02 231.816 1039.05 230.6 1047.56 230.6ZM1047.56 244.488C1061.07 244.488 1068.94 240.968 1068.94 234.44C1068.94 227.976 1061.07 224.392 1047.56 224.392C1034.12 224.392 1026.25 227.976 1026.25 234.44C1026.25 240.968 1034.12 244.488 1047.56 244.488ZM1035.47 272.392H1067.72V257.224H1027.02V263.432H1059.4V266.568H1027.08V282.056H1069.26V275.72H1035.47V272.392ZM1020.94 247.304V253.896H1074.19V247.304H1020.94ZM1129.99 228.36H1117.51V223.304H1109.06V228.36H1096.52V234.376H1129.99V228.36ZM1106.89 245.064C1106.89 242.76 1109.32 241.544 1113.29 241.544C1117.26 241.544 1119.62 242.76 1119.62 245.064C1119.62 247.304 1117.26 248.52 1113.29 248.52C1109.32 248.52 1106.89 247.304 1106.89 245.064ZM1131.46 255.496C1126.98 256.136 1122.31 256.52 1117.51 256.84V253.832C1123.72 252.872 1127.62 249.672 1127.62 245.064C1127.62 239.368 1121.93 235.912 1113.29 235.912C1104.58 235.912 1098.89 239.368 1098.89 245.064C1098.89 249.672 1102.79 252.872 1109.06 253.832V257.224C1104.01 257.416 1099.21 257.416 1095.05 257.416L1095.94 263.88C1105.99 263.816 1119.88 263.56 1132.1 261.256L1131.46 255.496ZM1111.69 266.696H1103.24V281.48H1144.46V274.76H1111.69V266.696ZM1142.47 242.824V223.496H1134.02V269.576H1142.47V249.736H1149.9V242.824H1142.47ZM1163.4 241.16C1163.4 236.552 1166.53 233.864 1170.88 233.864C1175.24 233.864 1178.44 236.552 1178.44 241.16C1178.44 245.704 1175.24 248.456 1170.88 248.456C1166.53 248.456 1163.4 245.704 1163.4 241.16ZM1195.46 237.96V244.36H1186.05C1186.31 243.272 1186.44 242.248 1186.44 241.16C1186.44 240.008 1186.31 238.984 1186.12 237.96H1195.46ZM1195.46 251.08V258.12H1203.91V223.56H1195.46V231.24H1182.47C1179.65 228.424 1175.62 226.696 1170.88 226.696C1162.18 226.696 1155.4 232.776 1155.4 241.16C1155.4 249.48 1162.18 255.56 1170.88 255.56C1175.49 255.56 1179.52 253.896 1182.34 251.08H1195.46ZM1183.94 276.04C1176.2 276.04 1172.1 274.376 1172.1 270.92C1172.1 267.464 1176.2 265.8 1183.94 265.8C1191.68 265.8 1195.84 267.464 1195.84 270.92C1195.84 274.376 1191.68 276.04 1183.94 276.04ZM1183.94 259.272C1171.52 259.272 1163.78 263.56 1163.78 270.92C1163.78 278.216 1171.52 282.504 1183.94 282.504C1196.42 282.504 1204.16 278.216 1204.16 270.92C1204.16 263.56 1196.42 259.272 1183.94 259.272ZM1248.25 228.744H1235.07V223.112H1226.56V228.744H1213.44V235.336H1248.19L1248.25 228.744ZM1224.45 247.368C1224.45 244.552 1227.07 243.08 1230.85 243.08C1234.62 243.08 1237.25 244.552 1237.25 247.368C1237.25 250.184 1234.62 251.656 1230.85 251.656C1227.07 251.656 1224.45 250.184 1224.45 247.368ZM1245.31 247.368C1245.31 241.096 1239.36 236.936 1230.85 236.936C1222.33 236.936 1216.38 241.096 1216.38 247.368C1216.38 253.576 1222.33 257.8 1230.85 257.8C1239.36 257.8 1245.31 253.576 1245.31 247.368ZM1251.52 275.272H1229.95V271.112H1251.52V275.272ZM1251.52 264.776H1229.95V260.296H1221.57V281.8H1259.9V260.296H1251.52V264.776ZM1267.71 237.704H1259.9V223.624H1251.45V258.12H1259.9V244.616H1267.71V237.704ZM1283.83 229.128H1275.45V267.976H1280.7C1289.66 267.976 1299.45 267.336 1309.5 265.224L1308.6 258.184C1299.96 259.912 1291.58 260.552 1283.83 260.744V229.128ZM1313.15 223.496V282.44H1321.59V223.496H1313.15ZM1341.94 235.848H1361.01V229H1333.56V268.488H1338.55C1348.79 268.488 1356.85 268.168 1365.75 266.568L1364.92 259.592C1357.3 260.872 1350.32 261.32 1341.94 261.448V235.848ZM1385.97 245.32H1377.4V223.56H1368.95V282.632H1377.4V252.296H1385.97V245.32ZM1401.03 231.5L1400 263.094H1392.5L1391.44 231.5H1401.03ZM1391.19 272.875C1391.19 271.542 1391.65 270.438 1392.56 269.562C1393.5 268.667 1394.73 268.219 1396.25 268.219C1397.79 268.219 1399.02 268.667 1399.94 269.562C1400.85 270.438 1401.31 271.542 1401.31 272.875C1401.31 274.167 1400.85 275.26 1399.94 276.156C1399.02 277.052 1397.79 277.5 1396.25 277.5C1394.73 277.5 1393.5 277.052 1392.56 276.156C1391.65 275.26 1391.19 274.167 1391.19 272.875Z" fill="#FCFCFC"/>
<path d="M675.849 333.956V359.1H678.145V333.956H675.849ZM659.021 336.084V353.024H670.837V336.084H668.569V342.72H661.289V336.084H659.021ZM661.289 344.54H668.569V351.148H661.289V344.54ZM703.931 333.984H701.635V346.892H703.931V333.984ZM694.159 343.784H686.907V337.176H694.159V343.784ZM696.399 335.356H684.667V345.604H696.399V335.356ZM689.987 356.972V354.2H703.931V348.152H687.663V349.944H701.663V352.492H687.747V358.792H704.799V356.972H689.987ZM712.273 338.884H719.357V337.008H710.005V352.884H711.657C715.409 352.884 717.957 352.772 720.953 352.128L720.757 350.224C718.013 350.812 715.633 350.952 712.273 350.98V338.884ZM728.233 333.956V344.036H724.677V334.516H722.521V357.812H724.677V345.912H728.233V359.072H730.445V333.956H728.233ZM749.763 336.616H743.491V333.816H741.195V336.616H734.951V338.464H749.763V336.616ZM738.535 344.288C738.535 342.636 740.047 341.544 742.343 341.544C744.639 341.544 746.179 342.636 746.179 344.288C746.179 345.968 744.639 347.06 742.343 347.06C740.047 347.06 738.535 345.968 738.535 344.288ZM748.363 344.288C748.363 341.544 745.927 339.752 742.343 339.752C738.787 339.752 736.351 341.544 736.351 344.288C736.351 347.06 738.787 348.824 742.343 348.824C745.927 348.824 748.363 347.06 748.363 344.288ZM738.059 352.912H752.059V359.1H754.355V351.036H738.059V352.912ZM758.079 340.9H754.355V333.984H752.059V349.664H754.355V342.804H758.079V340.9ZM766.309 351.428C764.293 351.428 763.033 348.88 763.033 344.764C763.033 340.732 764.293 338.184 766.309 338.184C768.269 338.184 769.557 340.732 769.557 344.764C769.557 348.88 768.269 351.428 766.309 351.428ZM774.793 343.728H771.629C771.349 338.996 769.333 336.056 766.309 336.056C763.033 336.056 760.933 339.416 760.933 344.764C760.933 350.196 763.033 353.556 766.309 353.556C769.389 353.556 771.433 350.532 771.629 345.604H774.793V357.84H776.977V334.516H774.793V343.728ZM779.777 333.956V359.072H781.961V333.956H779.777ZM802.008 340.144H807.58V338.296H802.008V334.404H799.712V338.296H794.056V340.144H799.74V342.076C799.74 346.416 797.052 350.7 793.356 352.464L794.644 354.228C797.5 352.828 799.824 349.916 800.888 346.416C802.008 349.72 804.332 352.436 807.188 353.752L808.448 351.988C804.752 350.336 802.008 346.248 802.008 342.076V340.144ZM811.724 333.928V344.036H806.292V345.912H811.724V359.128H814.02V333.928H811.724ZM830.426 334.516C824.994 334.516 821.606 336.28 821.606 339.276C821.606 342.244 824.994 344.008 830.426 344.008C835.858 344.008 839.246 342.244 839.246 339.276C839.246 336.28 835.858 334.516 830.426 334.516ZM830.426 336.336C834.402 336.336 836.894 337.428 836.894 339.276C836.894 341.124 834.402 342.216 830.426 342.216C826.45 342.216 823.958 341.124 823.958 339.276C823.958 337.428 826.45 336.336 830.426 336.336ZM821.886 350.476V358.736H839.022V350.476H821.886ZM836.782 352.296V356.888H824.126V352.296H836.782ZM819.086 346.164V348.012H841.794V346.164H819.086ZM856.213 342.188C856.213 339.304 859.153 337.428 863.157 337.428C867.161 337.428 870.073 339.304 870.073 342.188C870.073 345.072 867.161 346.948 863.157 346.948C859.153 346.948 856.213 345.072 856.213 342.188ZM864.305 353.948V348.712C868.981 348.376 872.257 345.884 872.257 342.188C872.257 338.184 868.449 335.608 863.157 335.608C857.837 335.608 854.001 338.184 854.001 342.188C854.001 345.884 857.305 348.376 861.981 348.712V353.948H851.761V355.852H874.581V353.948H864.305ZM898.155 333.956H895.859V352.38H898.155V333.956ZM892.667 346.472C888.943 345.1 886.395 341.684 886.395 337.904V335.356H884.099V337.904C884.099 341.824 881.579 345.464 877.799 346.92L879.003 348.796C881.943 347.564 884.211 345.128 885.275 342.076C886.395 344.932 888.607 347.2 891.463 348.292L892.667 346.472ZM884.294 356.636V350.672H881.999V358.512H898.911V356.636H884.294ZM922.934 347.508C923.102 346.64 923.214 345.688 923.214 344.652C923.214 343.504 923.074 342.44 922.85 341.46H928.646V347.508H922.934ZM916.97 351.372C914.562 351.372 912.882 348.74 912.882 344.652C912.882 340.592 914.562 337.96 916.97 337.96C919.35 337.96 921.058 340.592 921.058 344.652C921.058 348.74 919.35 351.372 916.97 351.372ZM928.646 333.956V339.584H922.206C921.142 337.232 919.294 335.888 916.97 335.888C913.302 335.888 910.698 339.304 910.698 344.652C910.698 350 913.302 353.416 916.97 353.416C919.378 353.416 921.338 351.932 922.374 349.384H928.646V359.128H930.942V333.956H928.646ZM939.199 345.072H948.103V336.28H936.875V338.156H945.863V343.224H936.931V353.052H938.863C943.399 353.052 946.591 352.912 950.371 352.24L950.147 350.336C946.535 350.98 943.483 351.148 939.199 351.148V345.072ZM954.375 333.928V343.616H949.587V345.492H954.375V359.1H956.671V333.928H954.375ZM979.237 342.972H967.029V339.724H979.237V342.972ZM981.505 334.74H979.237V337.96H967.029V334.74H964.761V344.792H981.505V334.74ZM966.889 351.68H964.621V358.512H981.981V356.636H966.889V351.68ZM961.709 347.228V349.076H972.153V353.948H974.449V349.076H984.529V347.228H961.709ZM998.863 336.112C1002.98 336.112 1005.33 337.064 1005.33 338.744C1005.33 340.424 1002.98 341.376 998.863 341.376C994.747 341.376 992.395 340.424 992.395 338.744C992.395 337.064 994.747 336.112 998.863 336.112ZM998.863 343.084C1004.38 343.084 1007.68 341.572 1007.68 338.744C1007.68 335.916 1004.38 334.376 998.863 334.376C993.347 334.376 990.043 335.916 990.043 338.744C990.043 341.572 993.347 343.084 998.863 343.084ZM992.563 354.452H1007.32V348.796H990.239V350.532H1005.05V352.772H990.323V358.792H1008.08V357H992.563V354.452ZM987.495 344.792V346.64H1010.23V344.792H987.495ZM1040.83 333.984H1038.54V352.352H1040.83V333.984ZM1035.57 346.948C1031.87 345.716 1029.27 342.664 1029.27 339.276V337.904H1034.95V336.056H1021.18V337.904H1026.92V339.276C1026.92 342.86 1024.37 346.136 1020.56 347.452L1021.77 349.244C1024.73 348.18 1027.06 345.912 1028.12 343.056C1029.27 345.688 1031.57 347.76 1034.45 348.768L1035.57 346.948ZM1026.97 356.636V350.616H1024.68V358.512H1041.59V356.636H1026.97ZM1061.19 345.324C1057.46 344.092 1054.83 340.956 1054.83 337.4V334.964H1052.54V337.4C1052.54 341.096 1049.96 344.456 1046.15 345.828L1047.33 347.62C1050.3 346.528 1052.62 344.204 1053.71 341.292C1054.86 344.008 1057.16 346.136 1060.04 347.144L1061.19 345.324ZM1052.59 351.512H1064.35V356.888H1052.59V351.512ZM1050.35 358.736H1066.59V349.692H1050.35V358.736ZM1064.3 333.984V348.264H1066.59V333.984H1064.3ZM1083.08 335.524C1077.87 335.524 1073.95 338.296 1073.95 342.468C1073.95 346.668 1077.87 349.412 1083.08 349.412C1088.29 349.412 1092.21 346.668 1092.21 342.468C1092.21 338.296 1088.29 335.524 1083.08 335.524ZM1083.08 337.4C1087.06 337.4 1090.03 339.444 1090.03 342.468C1090.03 345.52 1087.06 347.536 1083.08 347.536C1079.13 347.536 1076.14 345.52 1076.14 342.468C1076.14 339.444 1079.13 337.4 1083.08 337.4ZM1071.71 353.836V355.74H1094.53V353.836H1071.71ZM1110.02 354.088V349.356H1118.05V347.508H1102.6V343.448H1117.46V335.804H1100.27V337.68H1115.22V341.6H1100.33V349.356H1107.69V354.088H1097.47V355.964H1120.29V354.088H1110.02ZM1145.13 336.42H1139.08V333.872H1136.78V336.42H1130.71V338.128H1145.13V336.42ZM1134.23 343.028C1134.23 341.684 1135.66 340.816 1137.93 340.816C1140.14 340.816 1141.6 341.684 1141.6 343.028C1141.6 344.428 1140.14 345.268 1137.93 345.268C1135.66 345.268 1134.23 344.428 1134.23 343.028ZM1145.88 347.984C1143.73 348.348 1141.37 348.544 1139.08 348.656V346.864C1141.96 346.556 1143.78 345.184 1143.78 343.028C1143.78 340.648 1141.43 339.192 1137.93 339.192C1134.4 339.192 1132.05 340.648 1132.05 343.028C1132.05 345.184 1133.9 346.584 1136.78 346.864V348.768C1134.37 348.852 1132.05 348.88 1130.09 348.88L1130.34 350.728C1134.71 350.7 1140.73 350.616 1146.05 349.636L1145.88 347.984ZM1136.08 352.296H1133.79V358.512H1150.56V356.636H1136.08V352.296ZM1149.66 342.72V333.956H1147.37V353.612H1149.66V344.624H1153.33V342.72H1149.66ZM1158.54 341.404C1158.54 339.08 1160.38 337.4 1162.82 337.4C1165.28 337.4 1167.08 339.08 1167.08 341.404C1167.08 343.756 1165.28 345.436 1162.82 345.436C1160.38 345.436 1158.54 343.756 1158.54 341.404ZM1174.33 339.444V343.364H1168.92C1169.15 342.748 1169.26 342.104 1169.26 341.404C1169.26 340.676 1169.15 340.032 1168.95 339.444H1174.33ZM1174.33 345.24V348.824H1176.65V333.956H1174.33V337.568H1167.89C1166.74 336.28 1164.95 335.468 1162.82 335.468C1159.1 335.468 1156.35 337.904 1156.35 341.404C1156.35 344.932 1159.1 347.396 1162.82 347.396C1164.95 347.396 1166.74 346.584 1167.89 345.24H1174.33ZM1168.34 357.224C1164.56 357.224 1162.26 356.104 1162.26 354.228C1162.26 352.324 1164.56 351.204 1168.34 351.204C1172.17 351.204 1174.47 352.324 1174.47 354.228C1174.47 356.104 1172.17 357.224 1168.34 357.224ZM1168.34 349.412C1163.18 349.412 1159.99 351.176 1159.99 354.228C1159.99 357.28 1163.18 359.044 1168.34 359.044C1173.52 359.044 1176.74 357.28 1176.74 354.228C1176.74 351.176 1173.52 349.412 1168.34 349.412ZM1196.61 336.532H1190.34V333.704H1188.05V336.532H1181.8V338.38H1196.61V336.532ZM1185.39 343.952C1185.39 342.328 1186.9 341.292 1189.19 341.292C1191.49 341.292 1193.03 342.328 1193.03 343.952C1193.03 345.604 1191.49 346.612 1189.19 346.612C1186.9 346.612 1185.39 345.604 1185.39 343.952ZM1195.21 343.952C1195.21 341.292 1192.78 339.584 1189.19 339.584C1185.61 339.584 1183.2 341.292 1183.2 343.952C1183.2 346.64 1185.61 348.348 1189.19 348.348C1192.78 348.348 1195.21 346.64 1195.21 343.952ZM1198.94 356.888H1187.68V354.116H1198.94V356.888ZM1198.94 352.324H1187.68V349.664H1185.41V358.736H1201.21V349.664H1198.94V352.324ZM1204.93 340.34H1201.21V333.956H1198.91V348.544H1201.21V342.272H1204.93V340.34ZM1211.34 336.392H1209.04V352.576H1211.12C1215.12 352.576 1219.07 352.296 1223.44 351.4L1223.18 349.44C1219.01 350.28 1215.12 350.616 1211.34 350.616V336.392ZM1225.76 333.956V359.044H1228.06V333.956H1225.76ZM1236.59 338.268H1245.97V336.364H1234.3V352.856H1236.29C1241.02 352.856 1244.32 352.688 1248.16 351.96L1247.91 350.056C1244.27 350.7 1241.05 350.896 1236.59 350.896V338.268ZM1256.7 343.868H1252.55V333.956H1250.26V359.128H1252.55V345.772H1256.7V343.868ZM1259.48 355.66C1259.48 355.232 1259.61 354.872 1259.87 354.58C1260.15 354.279 1260.54 354.129 1261.05 354.129C1261.56 354.129 1261.95 354.279 1262.21 354.58C1262.48 354.872 1262.62 355.232 1262.62 355.66C1262.62 356.079 1262.48 356.435 1262.21 356.727C1261.95 357.018 1261.56 357.164 1261.05 357.164C1260.54 357.164 1260.15 357.018 1259.87 356.727C1259.61 356.435 1259.48 356.079 1259.48 355.66ZM523.763 378.956V404.1H526.059V378.956H523.763ZM506.935 381.084V398.024H518.751V381.084H516.483V387.72H509.203V381.084H506.935ZM509.203 389.54H516.483V396.148H509.203V389.54ZM551.845 378.984H549.549V391.892H551.845V378.984ZM542.073 388.784H534.821V382.176H542.073V388.784ZM544.313 380.356H532.581V390.604H544.313V380.356ZM537.901 401.972V399.2H551.845V393.152H535.577V394.944H549.577V397.492H535.661V403.792H552.713V401.972H537.901ZM560.187 383.884H567.271V382.008H557.919V397.884H559.571C563.323 397.884 565.871 397.772 568.867 397.128L568.671 395.224C565.927 395.812 563.547 395.952 560.187 395.98V383.884ZM576.147 378.956V389.036H572.591V379.516H570.435V402.812H572.591V390.912H576.147V404.072H578.359V378.956H576.147ZM597.677 381.616H591.405V378.816H589.109V381.616H582.865V383.464H597.677V381.616ZM586.449 389.288C586.449 387.636 587.961 386.544 590.257 386.544C592.553 386.544 594.093 387.636 594.093 389.288C594.093 390.968 592.553 392.06 590.257 392.06C587.961 392.06 586.449 390.968 586.449 389.288ZM596.277 389.288C596.277 386.544 593.841 384.752 590.257 384.752C586.701 384.752 584.265 386.544 584.265 389.288C584.265 392.06 586.701 393.824 590.257 393.824C593.841 393.824 596.277 392.06 596.277 389.288ZM585.973 397.912H599.973V404.1H602.269V396.036H585.973V397.912ZM605.993 385.9H602.269V378.984H599.973V394.664H602.269V387.804H605.993V385.9ZM619.879 381.672C623.827 381.672 626.347 382.848 626.347 384.836C626.347 386.824 623.827 387.972 619.879 387.972C615.931 387.972 613.411 386.824 613.411 384.836C613.411 382.848 615.931 381.672 619.879 381.672ZM619.879 389.82C625.255 389.82 628.699 387.972 628.699 384.836C628.699 381.7 625.255 379.824 619.879 379.824C614.503 379.824 611.059 381.7 611.059 384.836C611.059 387.972 614.503 389.82 619.879 389.82ZM613.747 396.232H611.451V403.512H628.727V401.636H613.747V396.232ZM608.511 392.172V394.02H631.219V392.172H608.511ZM644.406 383.884H651.49V382.008H642.138V397.884H643.79C647.542 397.884 650.09 397.772 653.086 397.128L652.89 395.224C650.146 395.812 647.766 395.952 644.406 395.98V383.884ZM660.366 378.956V389.036H656.81V379.516H654.654V402.812H656.81V390.912H660.366V404.072H662.578V378.956H660.366ZM681.896 381.616H675.624V378.816H673.328V381.616H667.084V383.464H681.896V381.616ZM670.668 389.288C670.668 387.636 672.18 386.544 674.476 386.544C676.772 386.544 678.312 387.636 678.312 389.288C678.312 390.968 676.772 392.06 674.476 392.06C672.18 392.06 670.668 390.968 670.668 389.288ZM680.496 389.288C680.496 386.544 678.06 384.752 674.476 384.752C670.92 384.752 668.484 386.544 668.484 389.288C668.484 392.06 670.92 393.824 674.476 393.824C678.06 393.824 680.496 392.06 680.496 389.288ZM670.192 397.912H684.192V404.1H686.488V396.036H670.192V397.912ZM690.212 385.9H686.488V378.984H684.192V394.664H686.488V387.804H690.212V385.9ZM708.549 387.58H711.741V394.468H713.953V378.984H711.741V385.704H708.549V379.46H706.365V393.656H708.549V387.58ZM705.329 390.744C702.109 389.512 700.233 386.684 700.233 383.912V380.524H698.021V383.912C698.021 386.712 696.061 389.96 692.785 391.416L694.017 393.208C696.453 392.116 698.245 389.988 699.141 387.636C700.037 389.764 701.745 391.556 704.097 392.508L705.329 390.744ZM705.665 402.28C701.913 402.28 699.561 401.272 699.561 399.536C699.561 397.8 701.913 396.82 705.665 396.82C709.473 396.82 711.797 397.8 711.797 399.536C711.797 401.272 709.473 402.28 705.665 402.28ZM705.665 395.028C700.513 395.028 697.293 396.68 697.293 399.536C697.293 402.392 700.513 404.044 705.665 404.044C710.845 404.044 714.065 402.392 714.065 399.536C714.065 396.68 710.845 395.028 705.665 395.028ZM738.535 385.564H723.835V381.644H738.283V379.796H721.539V387.412H738.535V385.564ZM723.555 399.396H738.311V393.488H721.231V395.28H736.043V397.688H721.315V403.764H739.067V401.972H723.555V399.396ZM718.515 389.428V391.304H741.251V389.428H718.515ZM755.613 381.112C759.729 381.112 762.081 382.064 762.081 383.744C762.081 385.424 759.729 386.376 755.613 386.376C751.497 386.376 749.145 385.424 749.145 383.744C749.145 382.064 751.497 381.112 755.613 381.112ZM755.613 388.084C761.129 388.084 764.433 386.572 764.433 383.744C764.433 380.916 761.129 379.376 755.613 379.376C750.097 379.376 746.793 380.916 746.793 383.744C746.793 386.572 750.097 388.084 755.613 388.084ZM749.313 399.452H764.069V393.796H746.989V395.532H761.801V397.772H747.073V403.792H764.825V402H749.313V399.452ZM744.245 389.792V391.64H766.981V389.792H744.245ZM785.208 382.036C787.644 382.036 789.38 383.352 789.38 385.312C789.38 387.272 787.644 388.588 785.208 388.588C782.744 388.588 781.008 387.272 781.008 385.312C781.008 383.352 782.744 382.036 785.208 382.036ZM785.208 390.464C788.932 390.464 791.592 388.364 791.592 385.312C791.592 382.232 788.932 380.132 785.208 380.132C781.456 380.132 778.796 382.232 778.796 385.312C778.796 388.364 781.456 390.464 785.208 390.464ZM793.468 391.696C787.952 392.536 781.596 392.592 776.92 392.592L777.228 394.524C779.3 394.524 781.68 394.496 784.172 394.384V403.288H786.468V394.244C788.848 394.104 791.284 393.824 793.664 393.404L793.468 391.696ZM795.288 378.984V404.1H797.584V378.984H795.288ZM817.63 382.036H811.358V378.956H809.062V382.036H802.818V383.884H817.63V382.036ZM806.402 389.932C806.402 388.196 807.942 387.076 810.21 387.076C812.478 387.076 814.046 388.196 814.046 389.932C814.046 391.696 812.478 392.816 810.21 392.816C807.942 392.816 806.402 391.696 806.402 389.932ZM816.23 389.932C816.23 387.132 813.766 385.284 810.21 385.284C806.654 385.284 804.218 387.132 804.218 389.932C804.218 392.76 806.654 394.608 810.21 394.608C813.766 394.608 816.23 392.76 816.23 389.932ZM808.894 396.316H806.598V403.512H823.342V401.636H808.894V396.316ZM822.222 387.244V378.956H819.926V397.8H822.222V389.176H825.918V387.244H822.222ZM839.273 395.28V397.128H853.749V404.1H856.045V395.28H839.273ZM853.749 378.984V393.908H856.045V378.984H853.749ZM842.577 380.468C838.769 380.468 836.025 382.876 836.025 386.404C836.025 389.932 838.769 392.34 842.577 392.34C846.357 392.34 849.129 389.932 849.129 386.404C849.129 382.876 846.357 380.468 842.577 380.468ZM842.577 382.4C845.069 382.4 846.889 384.052 846.889 386.404C846.889 388.756 845.069 390.408 842.577 390.408C840.057 390.408 838.265 388.756 838.265 386.404C838.265 384.052 840.057 382.4 842.577 382.4ZM871.555 390.184H864.611V382.708H871.555V390.184ZM879.563 384.892V388H873.795V384.892H879.563ZM873.795 389.848H879.563V393.824H881.887V378.984H879.563V383.044H873.795V380.86H862.343V392.004H873.795V389.848ZM873.571 402.252C869.819 402.252 867.523 401.16 867.523 399.312C867.523 397.464 869.819 396.372 873.571 396.372C877.379 396.372 879.675 397.464 879.675 399.312C879.675 401.16 877.379 402.252 873.571 402.252ZM873.571 394.58C868.419 394.58 865.227 396.288 865.227 399.312C865.227 402.308 868.419 404.044 873.571 404.044C878.751 404.044 881.971 402.308 881.971 399.312C881.971 396.288 878.751 394.58 873.571 394.58ZM895.27 381.56V383.436H904.286C904.174 384.976 903.95 386.46 903.474 387.86L893.982 388.476L894.402 390.464L902.774 389.68C901.234 393.012 898.462 395.896 893.898 398.136L895.186 399.956C904.006 395.476 906.554 388.84 906.554 381.56H895.27ZM912.266 378.984V389.036H906.47V390.912H912.266V404.072H914.562V378.984H912.266ZM937.24 388.252H924.78V382.148H937.24V388.252ZM939.508 380.328H922.54V390.1H939.508V380.328ZM942.42 393.488H919.628V395.336H925.424V404.24H927.72V395.336H934.356V404.24H936.652V395.336H942.42V393.488ZM949.278 381.392H946.982V397.576H949.054C953.058 397.576 957.006 397.296 961.374 396.4L961.122 394.44C956.95 395.28 953.058 395.616 949.278 395.616V381.392ZM963.698 378.956V404.044H965.994V378.956H963.698ZM975.036 390.128H984.024V388.28H975.036V383.1H984.948V381.224H972.768V398.024H974.756C979.544 398.024 982.904 397.856 986.824 397.184L986.6 395.308C982.848 395.98 979.6 396.148 975.036 396.148V390.128ZM989.484 378.956V404.044H991.78V378.956H989.484ZM1015.24 378.984V392.452H1017.54V378.984H1015.24ZM1001.35 393.684V403.736H1017.54V393.684H1015.27V396.764H1003.62V393.684H1001.35ZM1003.62 398.556H1015.27V401.888H1003.62V398.556ZM1004.04 380.16C1000.26 380.16 997.517 382.512 997.517 385.928C997.517 389.4 1000.26 391.724 1004.04 391.724C1007.85 391.724 1010.62 389.4 1010.62 385.928C1010.62 382.512 1007.85 380.16 1004.04 380.16ZM1004.04 382.064C1006.59 382.064 1008.38 383.66 1008.38 385.928C1008.38 388.224 1006.59 389.82 1004.04 389.82C1001.55 389.82 999.757 388.224 999.757 385.928C999.757 383.66 1001.55 382.064 1004.04 382.064ZM1026.55 381.392H1024.26V397.576H1026.33C1030.33 397.576 1034.28 397.296 1038.65 396.4L1038.4 394.44C1034.22 395.28 1030.33 395.616 1026.55 395.616V381.392ZM1040.97 378.956V404.044H1043.27V378.956H1040.97ZM1051.8 383.268H1061.18V381.364H1049.51V397.856H1051.5C1056.23 397.856 1059.53 397.688 1063.37 396.96L1063.12 395.056C1059.48 395.7 1056.26 395.896 1051.8 395.896V383.268ZM1071.91 388.868H1067.76V378.956H1065.47V404.128H1067.76V390.772H1071.91V388.868ZM1074.69 400.66C1074.69 400.232 1074.82 399.872 1075.08 399.58C1075.36 399.279 1075.75 399.129 1076.26 399.129C1076.77 399.129 1077.16 399.279 1077.42 399.58C1077.7 399.872 1077.83 400.232 1077.83 400.66C1077.83 401.079 1077.7 401.435 1077.42 401.727C1077.16 402.018 1076.77 402.164 1076.26 402.164C1075.75 402.164 1075.36 402.018 1075.08 401.727C1074.82 401.435 1074.69 401.079 1074.69 400.66ZM1101.86 385.9V387.776H1106.9V397.38H1109.22V378.984H1106.9V385.9H1101.86ZM1103.34 391.808C1099.7 390.52 1097.24 387.384 1097.24 384.108V382.876H1102.75V381H1089.34V382.876H1094.94V384.136C1094.94 387.692 1092.34 391.024 1088.61 392.368L1089.82 394.16C1092.76 393.096 1095.05 390.772 1096.15 387.916C1097.24 390.492 1099.39 392.592 1102.19 393.6L1103.34 391.808ZM1095.47 401.636V395.756H1093.15V403.512H1109.92V401.636H1095.47ZM1137.08 390.996V389.12H1133.52C1134.14 386.152 1134.14 383.856 1134.14 381.98V380.16H1117.2V382.008H1131.87C1131.87 383.884 1131.87 386.096 1131.2 389.12H1114.29V390.996H1124.51V395.588H1116.7V397.436H1131.98V404.044H1134.28V395.588H1126.8V390.996H1137.08ZM1145.73 396.428C1143.71 396.428 1142.45 393.88 1142.45 389.764C1142.45 385.732 1143.71 383.184 1145.73 383.184C1147.69 383.184 1148.98 385.732 1148.98 389.764C1148.98 393.88 1147.69 396.428 1145.73 396.428ZM1154.21 388.728H1151.05C1150.77 383.996 1148.75 381.056 1145.73 381.056C1142.45 381.056 1140.35 384.416 1140.35 389.764C1140.35 395.196 1142.45 398.556 1145.73 398.556C1148.81 398.556 1150.85 395.532 1151.05 390.604H1154.21V402.84H1156.4V379.516H1154.21V388.728ZM1159.2 378.956V404.072H1161.38V378.956H1159.2ZM1176.03 381.392H1173.76V397.716H1175.75C1179.58 397.716 1183.42 397.436 1187.7 396.568L1187.42 394.664C1183.36 395.476 1179.64 395.784 1176.03 395.784V381.392ZM1196.1 388.98H1192.07V378.956H1189.77V404.072H1192.07V390.884H1196.1V388.98ZM1201.59 386.488C1201.59 384.136 1203.44 382.512 1206.01 382.512C1208.56 382.512 1210.41 384.136 1210.41 386.488C1210.41 388.868 1208.56 390.436 1206.01 390.436C1203.44 390.436 1201.59 388.868 1201.59 386.488ZM1207.16 392.312C1210.38 391.892 1212.65 389.624 1212.65 386.488C1212.65 382.96 1209.85 380.58 1206.01 380.58C1202.12 380.58 1199.35 382.96 1199.35 386.488C1199.35 389.624 1201.59 391.92 1204.86 392.312V396.652C1202.51 396.708 1200.22 396.736 1198.23 396.736L1198.54 398.668C1202.96 398.668 1208.81 398.584 1214.13 397.688L1213.94 396.008C1211.78 396.316 1209.46 396.456 1207.16 396.568V392.312ZM1221.8 389.316H1217.83V378.928H1215.53V404.072H1217.83V391.248H1221.8V389.316ZM1232.33 380.72V382.568H1241.46C1241.12 386.46 1237.62 389.624 1231.29 390.996L1232.22 392.844C1239.61 391.136 1244.01 387.02 1244.01 380.72H1232.33ZM1237.17 399.424H1250.53V397.716H1237.17V395.224H1250.81V393.516H1234.88V403.736H1251.37V402H1237.17V399.424ZM1250.7 384.78V378.956H1248.4V392.368H1250.7V386.684H1254.42V384.78H1250.7ZM1268.31 381.672C1272.26 381.672 1274.78 382.848 1274.78 384.836C1274.78 386.824 1272.26 387.972 1268.31 387.972C1264.36 387.972 1261.84 386.824 1261.84 384.836C1261.84 382.848 1264.36 381.672 1268.31 381.672ZM1268.31 389.82C1273.68 389.82 1277.13 387.972 1277.13 384.836C1277.13 381.7 1273.68 379.824 1268.31 379.824C1262.93 379.824 1259.49 381.7 1259.49 384.836C1259.49 387.972 1262.93 389.82 1268.31 389.82ZM1262.18 396.232H1259.88V403.512H1277.16V401.636H1262.18V396.232ZM1256.94 392.172V394.02H1279.65V392.172H1256.94ZM1303 385.9V387.776H1308.04V397.38H1310.36V378.984H1308.04V385.9H1303ZM1304.48 391.808C1300.84 390.52 1298.38 387.384 1298.38 384.108V382.876H1303.9V381H1290.48V382.876H1296.08V384.136C1296.08 387.692 1293.48 391.024 1289.76 392.368L1290.96 394.16C1293.9 393.096 1296.2 390.772 1297.29 387.916C1298.38 390.492 1300.54 392.592 1303.34 393.6L1304.48 391.808ZM1296.62 401.636V395.756H1294.29V403.512H1311.06V401.636H1296.62ZM1332.99 382.372C1332.99 384.332 1332.99 386.18 1332.31 388.756L1334.55 389.008C1335.25 386.432 1335.25 384.388 1335.25 382.372V380.244H1318.15V382.092H1332.99V382.372ZM1326.69 402.252C1322.77 402.252 1320.25 401.188 1320.25 399.452C1320.25 397.66 1322.77 396.596 1326.69 396.596C1330.63 396.596 1333.15 397.66 1333.15 399.452C1333.15 401.188 1330.63 402.252 1326.69 402.252ZM1326.69 394.832C1321.34 394.832 1317.95 396.54 1317.95 399.452C1317.95 402.308 1321.34 404.044 1326.69 404.044C1332.03 404.044 1335.45 402.308 1335.45 399.452C1335.45 396.54 1332.03 394.832 1326.69 394.832ZM1327.05 390.66V385.844H1324.75V390.66H1315.49V392.508H1338.08V390.66H1327.05ZM1359.44 378.956V404.128H1361.74V378.956H1359.44ZM1348.5 380.888C1344.77 380.888 1342.11 384.304 1342.11 389.652C1342.11 395 1344.77 398.416 1348.5 398.416C1352.22 398.416 1354.88 395 1354.88 389.652C1354.88 384.304 1352.22 380.888 1348.5 380.888ZM1348.5 382.96C1350.93 382.96 1352.67 385.592 1352.67 389.652C1352.67 393.74 1350.93 396.372 1348.5 396.372C1346.03 396.372 1344.3 393.74 1344.3 389.652C1344.3 385.592 1346.03 382.96 1348.5 382.96ZM1375.9 383.436H1381.81V381.532H1367.78V383.436H1373.61V386.628C1373.61 390.968 1370.56 395.7 1366.94 397.408L1368.29 399.256C1371.14 397.8 1373.61 394.636 1374.76 390.968C1375.96 394.412 1378.42 397.296 1381.34 398.64L1382.62 396.792C1378.93 395.224 1375.9 390.884 1375.9 386.628V383.436ZM1385.2 378.984V404.072H1387.5V378.984H1385.2ZM1403.03 390.996H1395.98V383.044H1403.03V390.996ZM1405.27 381.196H1393.74V392.816H1405.27V381.196ZM1398.86 395.616H1396.57V403.512H1413.31V401.636H1398.86V395.616ZM1412.19 386.6V378.928H1409.89V397.324H1412.19V388.532H1415.89V386.6H1412.19ZM544.032 428.268H553.412V426.364H541.736V442.856H543.724C548.456 442.856 551.76 442.688 555.596 441.96L555.344 440.056C551.704 440.7 548.484 440.896 544.032 440.896V428.268ZM564.136 433.868H559.992V423.956H557.696V449.128H559.992V435.772H564.136V433.868ZM584.013 429.332H569.341V435.576H586.813V433.784H571.609V431.04H586.281V424.796H569.285V426.588H584.013V429.332ZM571.693 441.68H569.397V448.512H586.813V446.636H571.693V441.68ZM566.401 437.872V439.748H589.193V437.872H566.401ZM614.028 426.616H607.756V423.816H605.46V426.616H599.216V428.464H614.028V426.616ZM602.8 434.288C602.8 432.636 604.312 431.544 606.608 431.544C608.904 431.544 610.444 432.636 610.444 434.288C610.444 435.968 608.904 437.06 606.608 437.06C604.312 437.06 602.8 435.968 602.8 434.288ZM612.628 434.288C612.628 431.544 610.192 429.752 606.608 429.752C603.052 429.752 600.616 431.544 600.616 434.288C600.616 437.06 603.052 438.824 606.608 438.824C610.192 438.824 612.628 437.06 612.628 434.288ZM602.324 442.912H616.324V449.1H618.62V441.036H602.324V442.912ZM622.344 430.9H618.62V423.984H616.324V439.664H618.62V432.804H622.344V430.9ZM642.642 429.248C642.642 432.356 642.642 435.66 641.774 440.14L644.042 440.42C644.938 435.716 644.938 432.44 644.938 429.248V426.476H627.242V428.352H642.642V429.248ZM638.946 443.668V435.352H636.678V443.668H632.73V435.352H630.462V443.668H624.89V445.544H647.598V443.668H638.946ZM678.201 423.984H675.905V442.52H678.201V423.984ZM673.049 437.228C669.325 436.08 666.693 433.112 666.693 429.808V429.164H672.377V427.316H666.721V424.068H664.425V427.316H658.713V429.164H664.425V429.808C664.425 433.308 661.877 436.472 658.125 437.704L659.245 439.496C662.213 438.488 664.509 436.304 665.601 433.532C666.749 436.108 669.045 438.096 671.957 439.02L673.049 437.228ZM664.341 446.636V440.812H662.045V448.512H678.957V446.636H664.341ZM706.087 436.388H702.363C703.063 432.776 703.063 430.116 703.063 427.764V425.58H686.207V427.428H700.823V427.764C700.823 430.116 700.823 432.776 700.039 436.388H683.379V438.264H693.515V449.1H695.839V438.264H706.087V436.388ZM729.129 430.564H714.429V426.644H728.877V424.796H712.133V432.412H729.129V430.564ZM714.149 444.396H728.905V438.488H711.825V440.28H726.637V442.688H711.909V448.764H729.661V446.972H714.149V444.396ZM709.109 434.428V436.304H731.845V434.428H709.109ZM747.971 438.04C748.671 433.364 748.671 430.088 748.671 428.072V426.7H735.987V428.576H746.431C746.431 430.592 746.375 433.644 745.675 437.816L747.971 438.04ZM742.203 433.868H739.935V441.596C738.059 441.652 736.211 441.68 734.615 441.68L734.867 443.584C739.319 443.584 745.227 443.472 750.435 442.632L750.295 440.952C747.747 441.26 744.947 441.428 742.203 441.54V433.868ZM758.135 434.456H754.131V423.956H751.835V449.072H754.131V436.388H758.135V434.456ZM789.242 436.22C784.846 435.436 780.058 431.74 780.058 427.568V425.636H777.65V427.568C777.65 431.74 772.89 435.436 768.494 436.22L769.446 438.124C773.31 437.312 777.23 434.708 778.854 431.124C780.478 434.708 784.426 437.312 788.262 438.124L789.242 436.22ZM780.002 443.92V437.816H777.706V443.92H767.57V445.796H790.362V443.92H780.002ZM804.668 447.308C800.636 447.308 798.368 446.524 798.368 445.012C798.368 443.528 800.636 442.716 804.668 442.716C808.728 442.716 810.968 443.528 810.968 445.012C810.968 446.524 808.728 447.308 804.668 447.308ZM804.668 441.008C799.208 441.008 796.072 442.408 796.072 445.012C796.072 447.644 799.208 449.044 804.668 449.044C810.128 449.044 813.264 447.644 813.264 445.012C813.264 442.408 810.128 441.008 804.668 441.008ZM805.816 437.256V434.792H813.376V433H798.592V430.536H812.564V428.8H798.592V426.476H813.236V424.684H796.296V434.792H803.52V437.256H793.3V439.104H816.036V437.256H805.816ZM826.45 441.568C824.182 441.568 822.53 439.944 822.53 437.704C822.53 435.436 824.182 433.812 826.45 433.812C828.746 433.812 830.398 435.436 830.398 437.704C830.398 439.944 828.746 441.568 826.45 441.568ZM826.45 431.908C822.922 431.908 820.374 434.316 820.374 437.704C820.374 441.12 822.922 443.472 826.45 443.472C830.034 443.472 832.582 441.12 832.582 437.704C832.582 434.316 830.034 431.908 826.45 431.908ZM827.57 424.264H825.274V427.988H818.946V429.836H833.758V427.988H827.57V424.264ZM842.55 434.288H838.434V423.984H836.138V449.072H838.434V436.22H842.55V434.288ZM857.275 436.892V431.852H863.239V436.892H857.275ZM855.007 440.896H848.091V428.24H855.007V440.896ZM863.239 423.956V429.976H857.275V426.42H845.851V442.716H857.275V438.768H863.239V449.128H865.535V423.956H863.239ZM890.959 430.48V432.356H895.915V438.936H898.239V423.984H895.915V430.48H890.959ZM892.359 436.192C888.719 434.904 886.255 431.74 886.255 428.52V427.652H891.771V425.804H878.359V427.652H883.959V428.52C883.959 432.132 881.383 435.52 877.631 436.892L878.835 438.712C881.775 437.592 884.099 435.24 885.163 432.328C886.255 434.904 888.411 436.976 891.211 437.984L892.359 436.192ZM889.951 447.28C886.171 447.28 883.875 446.216 883.875 444.396C883.875 442.576 886.171 441.484 889.951 441.484C893.731 441.484 896.027 442.576 896.027 444.396C896.027 446.216 893.731 447.28 889.951 447.28ZM889.951 439.72C884.799 439.72 881.579 441.428 881.579 444.396C881.579 447.364 884.799 449.072 889.951 449.072C895.103 449.072 898.323 447.364 898.323 444.396C898.323 441.428 895.103 439.72 889.951 439.72ZM908.26 432.104H921.084V436.724H908.26V432.104ZM915.82 443.976V438.572H923.324V425.748H921.084V430.228H908.26V425.748H905.992V438.572H913.496V443.976H903.304V445.852H926.068V443.976H915.82ZM946.646 428.352H931.974V433.728H949.362V432.076H934.242V429.92H948.914V424.684H931.918V426.308H946.646V428.352ZM934.102 444.76H948.998V439.412H931.778V441.064H946.73V443.164H931.834V448.736H949.782V447.084H934.102V444.76ZM929.062 435.632V437.368H951.826V435.632H929.062ZM979.517 429.248C979.517 432.356 979.517 435.66 978.649 440.14L980.917 440.42C981.813 435.716 981.813 432.44 981.813 429.248V426.476H964.117V428.352H979.517V429.248ZM975.821 443.668V435.352H973.553V443.668H969.605V435.352H967.337V443.668H961.765V445.544H984.473V443.668H975.821ZM1002.45 426.42H996.399V423.872H994.103V426.42H988.027V428.128H1002.45V426.42ZM991.555 433.028C991.555 431.684 992.983 430.816 995.251 430.816C997.463 430.816 998.919 431.684 998.919 433.028C998.919 434.428 997.463 435.268 995.251 435.268C992.983 435.268 991.555 434.428 991.555 433.028ZM1003.2 437.984C1001.05 438.348 998.695 438.544 996.399 438.656V436.864C999.283 436.556 1001.1 435.184 1001.1 433.028C1001.1 430.648 998.751 429.192 995.251 429.192C991.723 429.192 989.371 430.648 989.371 433.028C989.371 435.184 991.219 436.584 994.103 436.864V438.768C991.695 438.852 989.371 438.88 987.411 438.88L987.663 440.728C992.031 440.7 998.051 440.616 1003.37 439.636L1003.2 437.984ZM993.403 442.296H991.107V448.512H1007.88V446.636H993.403V442.296ZM1006.98 432.72V423.956H1004.69V443.612H1006.98V434.624H1010.65V432.72H1006.98ZM1020.64 441.568C1018.38 441.568 1016.72 439.944 1016.72 437.704C1016.72 435.436 1018.38 433.812 1020.64 433.812C1022.94 433.812 1024.59 435.436 1024.59 437.704C1024.59 439.944 1022.94 441.568 1020.64 441.568ZM1020.64 431.908C1017.12 431.908 1014.57 434.316 1014.57 437.704C1014.57 441.12 1017.12 443.472 1020.64 443.472C1024.23 443.472 1026.78 441.12 1026.78 437.704C1026.78 434.316 1024.23 431.908 1020.64 431.908ZM1021.76 424.264H1019.47V427.988H1013.14V429.836H1027.95V427.988H1021.76V424.264ZM1036.74 434.288H1032.63V423.984H1030.33V449.072H1032.63V436.22H1036.74V434.288ZM1056.76 428.968C1056.76 431.992 1056.76 435.52 1055.81 440.336L1058.11 440.588C1059.06 435.52 1059.06 432.076 1059.06 428.968V426.476H1041.45V428.352H1056.76V428.968ZM1050.18 443.668V434.68H1047.89V443.668H1039.07V445.544H1061.77V443.668H1050.18ZM1087.53 432.58H1090.73V439.468H1092.94V423.984H1090.73V430.704H1087.53V424.46H1085.35V438.656H1087.53V432.58ZM1084.31 435.744C1081.09 434.512 1079.22 431.684 1079.22 428.912V425.524H1077.01V428.912C1077.01 431.712 1075.05 434.96 1071.77 436.416L1073 438.208C1075.44 437.116 1077.23 434.988 1078.13 432.636C1079.02 434.764 1080.73 436.556 1083.08 437.508L1084.31 435.744ZM1084.65 447.28C1080.9 447.28 1078.55 446.272 1078.55 444.536C1078.55 442.8 1080.9 441.82 1084.65 441.82C1088.46 441.82 1090.78 442.8 1090.78 444.536C1090.78 446.272 1088.46 447.28 1084.65 447.28ZM1084.65 440.028C1079.5 440.028 1076.28 441.68 1076.28 444.536C1076.28 447.392 1079.5 449.044 1084.65 449.044C1089.83 449.044 1093.05 447.392 1093.05 444.536C1093.05 441.68 1089.83 440.028 1084.65 440.028ZM1098.59 425.552V427.428H1107.69C1107.27 431.684 1103.55 434.96 1097.44 436.612L1098.4 438.432C1105.73 436.416 1110.16 431.908 1110.16 425.552H1098.59ZM1100.66 441.68H1114.69V449.072H1116.99V439.832H1100.66V441.68ZM1120.71 430.312H1116.99V423.928H1114.69V438.684H1116.99V432.216H1120.71V430.312ZM1134.6 426.112C1138.71 426.112 1141.07 427.064 1141.07 428.744C1141.07 430.424 1138.71 431.376 1134.6 431.376C1130.48 431.376 1128.13 430.424 1128.13 428.744C1128.13 427.064 1130.48 426.112 1134.6 426.112ZM1134.6 433.084C1140.11 433.084 1143.42 431.572 1143.42 428.744C1143.42 425.916 1140.11 424.376 1134.6 424.376C1129.08 424.376 1125.78 425.916 1125.78 428.744C1125.78 431.572 1129.08 433.084 1134.6 433.084ZM1128.3 444.452H1143.05V438.796H1125.97V440.532H1140.79V442.772H1126.06V448.792H1143.81V447H1128.3V444.452ZM1123.23 434.792V436.64H1145.97V434.792H1123.23ZM1173.52 427.372C1173.52 429.332 1173.52 431.18 1172.84 433.756L1175.08 434.008C1175.78 431.432 1175.78 429.388 1175.78 427.372V425.244H1158.68V427.092H1173.52V427.372ZM1167.22 447.252C1163.3 447.252 1160.78 446.188 1160.78 444.452C1160.78 442.66 1163.3 441.596 1167.22 441.596C1171.16 441.596 1173.68 442.66 1173.68 444.452C1173.68 446.188 1171.16 447.252 1167.22 447.252ZM1167.22 439.832C1161.87 439.832 1158.48 441.54 1158.48 444.452C1158.48 447.308 1161.87 449.044 1167.22 449.044C1172.56 449.044 1175.98 447.308 1175.98 444.452C1175.98 441.54 1172.56 439.832 1167.22 439.832ZM1167.58 435.66V430.844H1165.28V435.66H1156.02V437.508H1178.61V435.66H1167.58ZM1193.03 426.812C1196.87 426.812 1199.47 428.212 1199.47 430.424C1199.47 432.636 1196.87 434.064 1193.03 434.064C1189.22 434.064 1186.62 432.636 1186.62 430.424C1186.62 428.212 1189.22 426.812 1193.03 426.812ZM1193.03 435.912C1198.27 435.912 1201.82 433.784 1201.82 430.424C1201.82 427.064 1198.27 424.964 1193.03 424.964C1187.82 424.964 1184.27 427.064 1184.27 430.424C1184.27 433.784 1187.82 435.912 1193.03 435.912ZM1204.45 438.264H1181.72V440.14H1187.57V449.072H1189.89V440.14H1196.19V449.072H1198.52V440.14H1204.45V438.264ZM1222.37 426.252H1216.1V423.704H1213.8V426.252H1207.56V428.016H1222.37V426.252ZM1211.14 433.252C1211.14 431.74 1212.63 430.844 1214.95 430.844C1217.28 430.844 1218.79 431.74 1218.79 433.252C1218.79 434.736 1217.28 435.66 1214.95 435.66C1212.63 435.66 1211.14 434.736 1211.14 433.252ZM1220.97 433.252C1220.97 430.704 1218.59 429.136 1214.95 429.136C1211.34 429.136 1208.96 430.704 1208.96 433.252C1208.96 435.8 1211.34 437.368 1214.95 437.368C1218.59 437.368 1220.97 435.8 1220.97 433.252ZM1213.33 444.62H1226.96V439.048H1211V440.756H1224.7V442.94H1211.09V448.792H1227.89V447.028H1213.33V444.62ZM1226.96 429.92V423.872H1224.67V437.76H1226.96V431.824H1230.69V429.92H1226.96ZM1261.8 433.532C1257.23 432.86 1252.75 429.752 1252.75 426.252V424.852H1250.34V426.252C1250.34 429.836 1245.92 432.86 1241.36 433.532L1242.28 435.38C1246.2 434.708 1249.98 432.552 1251.55 429.5C1253.17 432.524 1256.95 434.708 1260.84 435.38L1261.8 433.532ZM1262.89 438.096H1240.21V440H1250.34V449.1H1252.64V440H1262.92L1262.89 438.096ZM1293.49 423.984H1291.19V438.32H1293.49V423.984ZM1279.99 427.344C1282.49 427.344 1284.33 428.996 1284.33 431.292C1284.33 433.616 1282.49 435.24 1279.99 435.24C1277.5 435.24 1275.71 433.616 1275.71 431.292C1275.71 428.996 1277.5 427.344 1279.99 427.344ZM1279.99 437.144C1283.8 437.144 1286.57 434.764 1286.57 431.292C1286.57 427.82 1283.8 425.44 1279.99 425.44C1276.21 425.44 1273.47 427.82 1273.47 431.292C1273.47 434.764 1276.21 437.144 1279.99 437.144ZM1290.69 439.412H1288.45V440.756C1288.45 442.716 1287.25 445.236 1284.84 446.72C1282.51 445.348 1281.37 442.968 1281.37 440.756V439.412H1279.15V440.756C1279.15 443.164 1277.28 445.88 1274.11 447L1275.26 448.736C1277.61 447.84 1279.32 446.104 1280.22 444.088C1280.97 446.188 1282.49 448.008 1284.89 448.96C1287.22 447.952 1288.76 446.048 1289.54 444.004C1290.38 446.104 1292.12 447.84 1294.58 448.736L1295.73 447C1292.54 445.936 1290.69 443.36 1290.69 440.756V439.412ZM1320.06 431.796C1315.61 431.236 1311.18 428.464 1311.18 425.356V424.236H1308.83V425.356C1308.83 428.548 1304.44 431.236 1299.93 431.796L1300.77 433.644C1304.69 433.028 1308.44 431.068 1310.01 428.268C1311.6 431.068 1315.33 433.028 1319.22 433.644L1320.06 431.796ZM1316.11 446.888H1303.76V443.696H1316.11V446.888ZM1316.11 441.932H1303.76V438.992H1301.5V448.736H1318.38V438.992H1316.11V441.932ZM1298.61 435.408V437.256H1321.35V435.408H1298.61ZM1328.26 426.392H1325.97V442.576H1328.04C1332.04 442.576 1335.99 442.296 1340.36 441.4L1340.11 439.44C1335.93 440.28 1332.04 440.616 1328.26 440.616V426.392ZM1342.68 423.956V449.044H1344.98V423.956H1342.68ZM1353.52 428.268H1362.9V426.364H1351.22V442.856H1353.21C1357.94 442.856 1361.24 442.688 1365.08 441.96L1364.83 440.056C1361.19 440.7 1357.97 440.896 1353.52 440.896V428.268ZM1373.62 433.868H1369.48V423.956H1367.18V449.128H1369.48V435.772H1373.62V433.868ZM1376.4 445.66C1376.4 445.232 1376.53 444.872 1376.79 444.58C1377.07 444.279 1377.46 444.129 1377.97 444.129C1378.48 444.129 1378.87 444.279 1379.13 444.58C1379.41 444.872 1379.54 445.232 1379.54 445.66C1379.54 446.079 1379.41 446.435 1379.13 446.727C1378.87 447.018 1378.48 447.164 1377.97 447.164C1377.46 447.164 1377.07 447.018 1376.79 446.727C1376.53 446.435 1376.4 446.079 1376.4 445.66Z" fill="#FCFCFC"/>
<defs>
<filter id="filter0_d_3799_2" x="748.888" y="874.241" width="31.6405" height="26.4048" filterUnits="userSpaceOnUse" color-interpolation-filters="sRGB">
<feFlood flood-opacity="0" result="BackgroundImageFix"/>
<feColorMatrix in="SourceAlpha" type="matrix" values="0 0 0 0 0 0 0 0 0 0 0 0 0 0 0 0 0 0 127 0" result="hardAlpha"/>
<feOffset dy="0.68"/>
<feGaussianBlur stdDeviation="1.02"/>
<feColorMatrix type="matrix" values="0 0 0 0 0 0 0 0 0 0 0 0 0 0 0 0 0 0 0.25 0"/>
<feBlend mode="normal" in2="BackgroundImageFix" result="effect1_dropShadow_3799_2"/>
<feBlend mode="normal" in="SourceGraphic" in2="effect1_dropShadow_3799_2" result="shape"/>
</filter>
<filter id="filter1_d_3799_2" x="786.095" y="885.485" width="32.1093" height="23.2892" filterUnits="userSpaceOnUse" color-interpolation-filters="sRGB">
<feFlood flood-opacity="0" result="BackgroundImageFix"/>
<feColorMatrix in="SourceAlpha" type="matrix" values="0 0 0 0 0 0 0 0 0 0 0 0 0 0 0 0 0 0 127 0" result="hardAlpha"/>
<feOffset dy="0.68"/>
<feGaussianBlur stdDeviation="1.02"/>
<feColorMatrix type="matrix" values="0 0 0 0 0 0 0 0 0 0 0 0 0 0 0 0 0 0 0.25 0"/>
<feBlend mode="normal" in2="BackgroundImageFix" result="effect1_dropShadow_3799_2"/>
<feBlend mode="normal" in="SourceGraphic" in2="effect1_dropShadow_3799_2" result="shape"/>
</filter>
<filter id="filter2_d_3799_2" x="834.045" y="893.63" width="17.7988" height="13.9009" filterUnits="userSpaceOnUse" color-interpolation-filters="sRGB">
<feFlood flood-opacity="0" result="BackgroundImageFix"/>
<feColorMatrix in="SourceAlpha" type="matrix" values="0 0 0 0 0 0 0 0 0 0 0 0 0 0 0 0 0 0 127 0" result="hardAlpha"/>
<feOffset dy="0.5"/>
<feGaussianBlur stdDeviation="0.75"/>
<feColorMatrix type="matrix" values="0 0 0 0 0 0 0 0 0 0 0 0 0 0 0 0 0 0 0.25 0"/>
<feBlend mode="normal" in2="BackgroundImageFix" result="effect1_dropShadow_3799_2"/>
<feBlend mode="normal" in="SourceGraphic" in2="effect1_dropShadow_3799_2" result="shape"/>
</filter>
<filter id="filter3_d_3799_2" x="1124.92" y="896.996" width="25.1405" height="18.9852" filterUnits="userSpaceOnUse" color-interpolation-filters="sRGB">
<feFlood flood-opacity="0" result="BackgroundImageFix"/>
<feColorMatrix in="SourceAlpha" type="matrix" values="0 0 0 0 0 0 0 0 0 0 0 0 0 0 0 0 0 0 127 0" result="hardAlpha"/>
<feOffset dy="0.53"/>
<feGaussianBlur stdDeviation="0.79"/>
<feColorMatrix type="matrix" values="0 0 0 0 0 0 0 0 0 0 0 0 0 0 0 0 0 0 0.25 0"/>
<feBlend mode="normal" in2="BackgroundImageFix" result="effect1_dropShadow_3799_2"/>
<feBlend mode="normal" in="SourceGraphic" in2="effect1_dropShadow_3799_2" result="shape"/>
</filter>
<filter id="filter4_d_3799_2" x="1147.56" y="882.662" width="18.9368" height="15.036" filterUnits="userSpaceOnUse" color-interpolation-filters="sRGB">
<feFlood flood-opacity="0" result="BackgroundImageFix"/>
<feColorMatrix in="SourceAlpha" type="matrix" values="0 0 0 0 0 0 0 0 0 0 0 0 0 0 0 0 0 0 127 0" result="hardAlpha"/>
<feOffset dy="0.62"/>
<feGaussianBlur stdDeviation="0.93"/>
<feColorMatrix type="matrix" values="0 0 0 0 0 0 0 0 0 0 0 0 0 0 0 0 0 0 0.25 0"/>
<feBlend mode="normal" in2="BackgroundImageFix" result="effect1_dropShadow_3799_2"/>
<feBlend mode="normal" in="SourceGraphic" in2="effect1_dropShadow_3799_2" result="shape"/>
</filter>
</defs>
</svg>
