<svg width="1920" height="1080" viewBox="0 0 1920 1080" fill="none" xmlns="http://www.w3.org/2000/svg">
<path d="M1920 0H0V1080H1920V0Z" fill="#E4E4E4"/>
<path d="M557.486 237.192H570.99V230.344H549.166V269.256H553.262C560.814 269.256 567.086 269 574.254 267.656L573.614 260.808C567.982 261.832 562.99 262.152 557.486 262.28V237.192ZM590.062 223.496V246.216H584.75V224.648H576.878V279.752H584.75V253H590.062V282.504H598.062V223.496H590.062ZM641.065 228.744H627.945V223.24H619.433V228.744H606.377V235.4H641.065V228.744ZM617.321 248.072C617.321 245.128 619.881 243.656 623.721 243.656C627.497 243.656 630.121 245.128 630.121 248.072C630.121 251.08 627.497 252.552 623.721 252.552C619.881 252.552 617.321 251.08 617.321 248.072ZM638.185 248.072C638.185 241.672 632.233 237.256 623.721 237.256C615.273 237.256 609.257 241.672 609.257 248.072C609.257 254.536 615.273 258.952 623.721 258.952C632.233 258.952 638.185 254.536 638.185 248.072ZM613.481 269.704H644.329V282.568H652.777V262.92H613.481V269.704ZM660.585 238.728H652.777V223.624H644.329V260.488H652.777V245.704H660.585V238.728ZM702.884 244.68H707.492V259.592H715.492V223.56H707.492V237.896H702.884V224.648H695.012V257.736H702.884V244.68ZM694.948 249.736C687.204 246.6 684.004 240.264 684.004 233.928V227.08H675.876V233.928C675.876 240.584 672.676 247.88 664.42 251.464L668.9 257.992C674.34 255.688 677.988 251.464 680.1 246.472C682.212 250.696 685.604 254.216 690.468 256.136L694.948 249.736ZM695.524 276.168C687.844 276.168 683.62 274.632 683.62 271.496C683.62 268.36 687.844 266.824 695.524 266.824C703.076 266.824 707.3 268.36 707.3 271.496C707.3 274.632 703.076 276.168 695.524 276.168ZM695.524 260.488C683.108 260.488 675.172 264.648 675.172 271.496C675.172 278.408 683.108 282.504 695.524 282.504C707.876 282.504 715.748 278.408 715.748 271.496C715.748 264.648 707.876 260.488 695.524 260.488ZM772.065 237.768V244.616H780.897V258.632H789.345V223.56H780.897V237.768H772.065ZM775.585 250.44C766.625 247.496 762.529 240.584 762.273 233.864H773.729V227.08H742.049V233.864H753.633C753.377 241.224 749.089 248.712 739.745 251.976L744.033 258.632C750.881 256.328 755.553 251.528 758.113 245.576C760.673 250.76 765.089 254.92 771.489 257.032L775.585 250.44ZM769.441 276.168C761.697 276.168 757.665 274.568 757.665 271.24C757.665 267.912 761.697 266.312 769.441 266.312C777.121 266.312 781.153 267.912 781.153 271.24C781.153 274.568 777.121 276.168 769.441 276.168ZM769.441 259.912C756.897 259.912 749.217 264.072 749.217 271.24C749.217 278.408 756.897 282.568 769.441 282.568C781.921 282.568 789.601 278.408 789.601 271.24C789.601 264.072 781.921 259.912 769.441 259.912ZM812.956 243.016H838.172V251.272H812.956V243.016ZM829.788 268.808V257.992H846.492V227.208H838.172V236.36H812.956V227.208H804.572V257.992H821.34V268.808H798.94V275.656H852.316V268.808H829.788ZM905.303 239.496H872.855V225.672H864.407V246.216H905.303V239.496ZM872.343 263.688H863.831V281.224H905.623V274.504H872.343V263.688ZM857.815 252.232V259.016H911.191V252.232H857.815ZM973.011 223.496V282.632H981.459V223.496H973.011ZM935.507 228.232V268.872H964.563V228.232H956.179V242.504H943.891V228.232H935.507ZM943.891 249.096H956.179V262.152H943.891V249.096ZM1040.4 223.56H1031.95V253.256H1040.4V223.56ZM1014.8 244.808H1002.77V233.096H1014.8V244.808ZM1023.05 226.504H994.446V251.464H1023.05V226.504ZM1009.55 275.528V271.816H1040.4V255.88H1001.17V262.344H1032.08V265.8H1001.23V282.056H1041.93V275.528H1009.55ZM1060.36 237.192H1073.87V230.344H1052.04V269.256H1056.14C1063.69 269.256 1069.96 269 1077.13 267.656L1076.49 260.808C1070.86 261.832 1065.87 262.152 1060.36 262.28V237.192ZM1092.94 223.496V246.216H1087.62V224.648H1079.75V279.752H1087.62V253H1092.94V282.504H1100.94V223.496H1092.94ZM1143.94 228.744H1130.82V223.24H1122.31V228.744H1109.25V235.4H1143.94V228.744ZM1120.2 248.072C1120.2 245.128 1122.76 243.656 1126.6 243.656C1130.37 243.656 1133 245.128 1133 248.072C1133 251.08 1130.37 252.552 1126.6 252.552C1122.76 252.552 1120.2 251.08 1120.2 248.072ZM1141.06 248.072C1141.06 241.672 1135.11 237.256 1126.6 237.256C1118.15 237.256 1112.13 241.672 1112.13 248.072C1112.13 254.536 1118.15 258.952 1126.6 258.952C1135.11 258.952 1141.06 254.536 1141.06 248.072ZM1116.36 269.704H1147.2V282.568H1155.65V262.92H1116.36V269.704ZM1163.46 238.728H1155.65V223.624H1147.2V260.488H1155.65V245.704H1163.46V238.728ZM1199.36 256.776C1200.96 247.048 1200.96 239.88 1200.96 234.184V229.384H1170.62V236.104H1192.64C1192.64 241.352 1192.45 247.688 1191.1 256.072L1199.36 256.776ZM1186.5 246.28H1178.18V263.688C1174.46 263.752 1170.88 263.752 1167.62 263.752L1168.38 270.664C1178.62 270.6 1191.81 270.344 1203.78 268.296L1203.33 262.216C1197.95 262.856 1192.19 263.24 1186.5 263.432V246.28ZM1222.4 247.24H1214.46V223.496H1206.02V282.44H1214.46V254.28H1222.4V247.24ZM1277.63 228.872H1264.51V223.176H1256V228.872H1242.88V235.528H1277.63V228.872ZM1253.88 247.88C1253.88 245 1256.51 243.528 1260.28 243.528C1264.06 243.528 1266.68 245 1266.68 247.88C1266.68 250.824 1264.06 252.296 1260.28 252.296C1256.51 252.296 1253.88 250.824 1253.88 247.88ZM1274.75 247.88C1274.75 241.608 1268.8 237.32 1260.28 237.32C1251.77 237.32 1245.82 241.608 1245.82 247.88C1245.82 254.28 1251.77 258.504 1260.28 258.504C1268.8 258.504 1274.75 254.28 1274.75 247.88ZM1259.32 268.296H1281.08V275.208H1259.32V268.296ZM1251 281.8H1289.34V261.64H1251V281.8ZM1297.15 238.088H1289.34V223.624H1280.89V259.08H1289.34V245H1297.15V238.088ZM1302.84 230.216V237.064H1308.92C1308.53 248.52 1306.81 257.352 1300.92 266.568L1307.38 270.152C1314.74 258.376 1316.15 245.192 1316.15 230.216H1302.84ZM1333.56 245.704H1328.69C1329.14 240.648 1329.27 235.528 1329.27 230.216H1317.88V237.064H1322.1C1321.85 249.096 1320.5 259.336 1314.04 269.384L1320.5 272.968C1324.47 266.568 1326.71 259.72 1327.93 252.488H1333.56V279.944H1341.37V224.84H1333.56V245.704ZM1344.89 223.56V282.568H1352.95V223.56H1344.89ZM1371.59 231.5L1370.56 263.094H1363.06L1362 231.5H1371.59ZM1361.75 272.875C1361.75 271.542 1362.21 270.438 1363.12 269.562C1364.06 268.667 1365.29 268.219 1366.81 268.219C1368.35 268.219 1369.58 268.667 1370.5 269.562C1371.42 270.438 1371.88 271.542 1371.88 272.875C1371.88 274.167 1371.42 275.26 1370.5 276.156C1369.58 277.052 1368.35 277.5 1366.81 277.5C1365.29 277.5 1364.06 277.052 1363.12 276.156C1362.21 275.26 1361.75 274.167 1361.75 272.875Z" fill="#1C2D30"/>
<path d="M543.281 338.884H550.365V337.008H541.013V352.884H542.665C546.417 352.884 548.965 352.772 551.961 352.128L551.765 350.224C549.021 350.812 546.641 350.952 543.281 350.98V338.884ZM559.241 333.956V344.036H555.685V334.516H553.529V357.812H555.685V345.912H559.241V359.072H561.453V333.956H559.241ZM580.771 336.616H574.499V333.816H572.203V336.616H565.959V338.464H580.771V336.616ZM569.543 344.288C569.543 342.636 571.055 341.544 573.351 341.544C575.647 341.544 577.187 342.636 577.187 344.288C577.187 345.968 575.647 347.06 573.351 347.06C571.055 347.06 569.543 345.968 569.543 344.288ZM579.371 344.288C579.371 341.544 576.935 339.752 573.351 339.752C569.795 339.752 567.359 341.544 567.359 344.288C567.359 347.06 569.795 348.824 573.351 348.824C576.935 348.824 579.371 347.06 579.371 344.288ZM569.067 352.912H583.067V359.1H585.363V351.036H569.067V352.912ZM589.087 340.9H585.363V333.984H583.067V349.664H585.363V342.804H589.087V340.9ZM607.424 342.58H610.616V349.468H612.828V333.984H610.616V340.704H607.424V334.46H605.24V348.656H607.424V342.58ZM604.204 345.744C600.984 344.512 599.108 341.684 599.108 338.912V335.524H596.896V338.912C596.896 341.712 594.936 344.96 591.66 346.416L592.892 348.208C595.328 347.116 597.12 344.988 598.016 342.636C598.912 344.764 600.62 346.556 602.972 347.508L604.204 345.744ZM604.54 357.28C600.788 357.28 598.436 356.272 598.436 354.536C598.436 352.8 600.788 351.82 604.54 351.82C608.348 351.82 610.672 352.8 610.672 354.536C610.672 356.272 608.348 357.28 604.54 357.28ZM604.54 350.028C599.388 350.028 596.168 351.68 596.168 354.536C596.168 357.392 599.388 359.044 604.54 359.044C609.72 359.044 612.94 357.392 612.94 354.536C612.94 351.68 609.72 350.028 604.54 350.028ZM625.538 335.804C621.646 335.804 618.818 338.184 618.818 341.712C618.818 345.212 621.646 347.62 625.538 347.62C629.458 347.62 632.258 345.212 632.258 341.712C632.258 338.184 629.458 335.804 625.538 335.804ZM625.538 337.764C628.142 337.764 630.018 339.36 630.018 341.712C630.018 344.036 628.142 345.66 625.538 345.66C622.962 345.66 621.058 344.036 621.058 341.712C621.058 339.36 622.962 337.764 625.538 337.764ZM635.562 333.956V359.128H637.858V333.956H635.562ZM617.838 353.612C622.374 353.612 628.45 353.556 634.106 352.52L633.91 350.812C628.422 351.652 622.122 351.68 617.558 351.68L617.838 353.612ZM654.993 337.876H667.845V346.024H654.993V337.876ZM662.609 353.948V347.844H670.085V336.056H652.781V347.844H660.285V353.948H650.093V355.852H672.857V353.948H662.609ZM695.955 342.02H681.003V336.896H695.731V335.02H678.707V343.868H695.955V342.02ZM681.059 351.148H678.763V358.484H696.179V356.608H681.059V351.148ZM675.851 346.64V348.488H698.559V346.64H675.851ZM721.966 340.48V342.356H726.922V348.936H729.246V333.984H726.922V340.48H721.966ZM723.366 346.192C719.726 344.904 717.262 341.74 717.262 338.52V337.652H722.778V335.804H709.366V337.652H714.966V338.52C714.966 342.132 712.39 345.52 708.638 346.892L709.842 348.712C712.782 347.592 715.106 345.24 716.17 342.328C717.262 344.904 719.418 346.976 722.218 347.984L723.366 346.192ZM720.958 357.28C717.178 357.28 714.882 356.216 714.882 354.396C714.882 352.576 717.178 351.484 720.958 351.484C724.738 351.484 727.034 352.576 727.034 354.396C727.034 356.216 724.738 357.28 720.958 357.28ZM720.958 349.72C715.806 349.72 712.586 351.428 712.586 354.396C712.586 357.364 715.806 359.072 720.958 359.072C726.11 359.072 729.33 357.364 729.33 354.396C729.33 351.428 726.11 349.72 720.958 349.72ZM739.268 342.104H752.092V346.724H739.268V342.104ZM746.828 353.976V348.572H754.332V335.748H752.092V340.228H739.268V335.748H737V348.572H744.504V353.976H734.312V355.852H757.076V353.976H746.828ZM780.202 341.516H765.418V334.88H763.122V343.392H780.202V341.516ZM765.25 351.12H762.954V358.456H780.342V356.58H765.25V351.12ZM760.042 346.752V348.6H782.806V346.752H760.042ZM811.029 333.956V359.1H813.325V333.956H811.029ZM794.201 336.084V353.024H806.017V336.084H803.749V342.72H796.469V336.084H794.201ZM796.469 344.54H803.749V351.148H796.469V344.54ZM839.111 333.984H836.815V346.892H839.111V333.984ZM829.339 343.784H822.087V337.176H829.339V343.784ZM831.579 335.356H819.847V345.604H831.579V335.356ZM825.167 356.972V354.2H839.111V348.152H822.843V349.944H836.843V352.492H822.927V358.792H839.979V356.972H825.167ZM847.453 338.884H854.537V337.008H845.185V352.884H846.837C850.589 352.884 853.137 352.772 856.133 352.128L855.937 350.224C853.193 350.812 850.813 350.952 847.453 350.98V338.884ZM863.413 333.956V344.036H859.857V334.516H857.701V357.812H859.857V345.912H863.413V359.072H865.625V333.956H863.413ZM884.943 336.616H878.671V333.816H876.375V336.616H870.131V338.464H884.943V336.616ZM873.715 344.288C873.715 342.636 875.227 341.544 877.523 341.544C879.819 341.544 881.359 342.636 881.359 344.288C881.359 345.968 879.819 347.06 877.523 347.06C875.227 347.06 873.715 345.968 873.715 344.288ZM883.543 344.288C883.543 341.544 881.107 339.752 877.523 339.752C873.967 339.752 871.531 341.544 871.531 344.288C871.531 347.06 873.967 348.824 877.523 348.824C881.107 348.824 883.543 347.06 883.543 344.288ZM873.239 352.912H887.239V359.1H889.535V351.036H873.239V352.912ZM893.259 340.9H889.535V333.984H887.239V349.664H889.535V342.804H893.259V340.9ZM901.488 351.428C899.472 351.428 898.212 348.88 898.212 344.764C898.212 340.732 899.472 338.184 901.488 338.184C903.448 338.184 904.736 340.732 904.736 344.764C904.736 348.88 903.448 351.428 901.488 351.428ZM909.972 343.728H906.808C906.528 338.996 904.512 336.056 901.488 336.056C898.212 336.056 896.112 339.416 896.112 344.764C896.112 350.196 898.212 353.556 901.488 353.556C904.568 353.556 906.612 350.532 906.808 345.604H909.972V357.84H912.156V334.516H909.972V343.728ZM914.956 333.956V359.072H917.14V333.956H914.956ZM930.354 336.112H928.058V340.62C928.058 345.268 925.202 350.112 921.562 351.932L922.962 353.752C925.79 352.24 928.114 349.076 929.206 345.352C930.354 348.88 932.65 351.876 935.506 353.304L936.85 351.484C933.21 349.748 930.354 345.184 930.354 340.62V336.112ZM939.958 333.956V342.468H934.134V344.344H939.958V359.1H942.254V333.956H939.958ZM950.771 337.094L950.594 351.381H948.311L948.119 337.094H950.771ZM948.037 355.729C948.037 355.318 948.16 354.972 948.406 354.689C948.661 354.407 949.035 354.266 949.527 354.266C950.01 354.266 950.38 354.407 950.635 354.689C950.899 354.972 951.031 355.318 951.031 355.729C951.031 356.12 950.899 356.458 950.635 356.74C950.38 357.023 950.01 357.164 949.527 357.164C949.035 357.164 948.661 357.023 948.406 356.74C948.16 356.458 948.037 356.12 948.037 355.729ZM962.576 335.552V337.428H971.676C971.256 341.684 967.532 344.96 961.428 346.612L962.38 348.432C969.716 346.416 974.14 341.908 974.14 335.552H962.576ZM964.648 351.68H978.676V359.072H980.972V349.832H964.648V351.68ZM984.696 340.312H980.972V333.928H978.676V348.684H980.972V342.216H984.696V340.312ZM989.342 344.12C993.458 343.644 997.21 341.824 998.61 339.08C1000.01 341.824 1003.76 343.644 1007.91 344.12L1008.72 342.3C1004.32 341.852 1000.29 339.724 1000.09 336.952H1007.91V335.104H989.342V336.952H997.126C996.93 339.724 992.926 341.852 988.502 342.3L989.342 344.12ZM998.582 357.28C994.606 357.28 992.31 356.356 992.31 354.704C992.31 353.08 994.606 352.156 998.582 352.156C1002.53 352.156 1004.85 353.08 1004.85 354.704C1004.85 356.356 1002.53 357.28 998.582 357.28ZM998.582 350.392C993.206 350.392 989.986 351.932 989.986 354.704C989.986 357.504 993.206 359.044 998.582 359.044C1003.96 359.044 1007.18 357.504 1007.18 354.704C1007.18 351.932 1003.96 350.392 998.582 350.392ZM999.73 346.472V342.86H997.434V346.472H987.242V348.32H1009.95V346.472H999.73ZM1038.68 346.92H1040.97V333.984H1038.68V338.548H1034.81V340.396H1038.68V346.92ZM1036.6 344.26C1033.75 342.748 1032.71 339.5 1032.71 336.812V335.048H1030.53V336.812C1030.53 338.8 1030.02 341.6 1028.18 343.532C1026.3 341.572 1025.82 338.688 1025.82 336.812V335.048H1023.61V336.812C1023.61 339.22 1022.58 342.636 1019.75 344.26L1020.95 345.884C1022.86 344.82 1024.03 342.916 1024.68 340.928C1025.24 342.972 1026.27 344.96 1028.18 346.164C1030.05 345.016 1031.09 343.112 1031.62 341.096C1032.29 343.084 1033.47 344.876 1035.37 345.884L1036.6 344.26ZM1026.38 356.86V354.088H1040.97V348.124H1024.03V349.916H1038.7V352.38H1024.09V358.68H1041.64V356.86H1026.38ZM1057.04 336.112C1061.16 336.112 1063.51 337.064 1063.51 338.744C1063.51 340.424 1061.16 341.376 1057.04 341.376C1052.93 341.376 1050.57 340.424 1050.57 338.744C1050.57 337.064 1052.93 336.112 1057.04 336.112ZM1057.04 343.084C1062.56 343.084 1065.86 341.572 1065.86 338.744C1065.86 335.916 1062.56 334.376 1057.04 334.376C1051.53 334.376 1048.22 335.916 1048.22 338.744C1048.22 341.572 1051.53 343.084 1057.04 343.084ZM1050.74 354.452H1065.5V348.796H1048.42V350.532H1063.23V352.772H1048.5V358.792H1066.25V357H1050.74V354.452ZM1045.67 344.792V346.64H1068.41V344.792H1045.67ZM1092.85 341.096H1086.61V336.392H1092.85V341.096ZM1084.31 341.096H1080.59V342.86H1098.85V341.096H1095.15V336.392H1098.93V334.628H1080.51V336.392H1084.31V341.096ZM1101.09 346.808V344.96H1078.38V346.808H1088.6V349.188H1081.12V350.896H1095.93V353.052H1081.21V358.792H1098.96V357.056H1083.45V354.704H1098.2V349.188H1090.89V346.808H1101.09ZM1121.89 338.968C1121.89 341.992 1121.89 345.52 1120.94 350.336L1123.23 350.588C1124.18 345.52 1124.18 342.076 1124.18 338.968V336.476H1106.57V338.352H1121.89V338.968ZM1115.31 353.668V344.68H1113.01V353.668H1104.19V355.544H1126.9V353.668H1115.31ZM1155.12 333.956V359.128H1157.42V333.956H1155.12ZM1144.17 335.888C1140.45 335.888 1137.79 339.304 1137.79 344.652C1137.79 350 1140.45 353.416 1144.17 353.416C1147.9 353.416 1150.56 350 1150.56 344.652C1150.56 339.304 1147.9 335.888 1144.17 335.888ZM1144.17 337.96C1146.61 337.96 1148.35 340.592 1148.35 344.652C1148.35 348.74 1146.61 351.372 1144.17 351.372C1141.71 351.372 1139.97 348.74 1139.97 344.652C1139.97 340.592 1141.71 337.96 1144.17 337.96ZM1169.32 351.372C1166.88 351.372 1165.17 348.712 1165.17 344.624C1165.17 340.592 1166.88 337.96 1169.32 337.96C1171.72 337.96 1173.43 340.592 1173.43 344.624C1173.43 348.712 1171.72 351.372 1169.32 351.372ZM1169.32 335.888C1165.62 335.888 1162.99 339.304 1162.99 344.624C1162.99 350 1165.62 353.416 1169.32 353.416C1173.01 353.416 1175.62 350 1175.62 344.624C1175.62 339.304 1173.01 335.888 1169.32 335.888ZM1185.95 342.188V340.284H1181.94V333.984H1179.65V359.072H1181.94V349.664H1185.95V347.76H1181.94V342.188H1185.95ZM1189.87 336.672V338.52H1199.3C1198.83 344.484 1195.47 349.3 1188.72 352.52L1189.95 354.396C1198.29 350.308 1201.63 343.924 1201.63 336.672H1189.87ZM1206.69 333.956V359.072H1208.99V333.956H1206.69ZM1231.72 338.352H1217.05V343.728H1234.44V342.076H1219.32V339.92H1233.99V334.684H1217V336.308H1231.72V338.352ZM1219.18 354.76H1234.08V349.412H1216.86V351.064H1231.81V353.164H1216.91V358.736H1234.86V357.084H1219.18V354.76ZM1214.14 345.632V347.368H1236.9V345.632H1214.14ZM1250.12 336.392H1247.85V352.716H1249.84C1253.68 352.716 1257.51 352.436 1261.8 351.568L1261.52 349.664C1257.46 350.476 1253.73 350.784 1250.12 350.784V336.392ZM1270.2 343.98H1266.16V333.956H1263.87V359.072H1266.16V345.884H1270.2V343.98ZM1287.13 341.796H1277.05V335.3H1274.76V343.644H1287.13V341.796ZM1288.84 346.276C1283.49 346.808 1277.42 346.864 1272.38 346.864L1272.69 348.796C1274.79 348.796 1277.08 348.768 1279.46 348.684V358.316H1281.76V348.6C1284.17 348.46 1286.63 348.292 1288.98 347.984L1288.84 346.276ZM1290.86 333.984V350.896H1285.17V352.716H1290.86V359.1H1293.15V333.984H1290.86ZM1303.32 342.104H1316.14V346.724H1303.32V342.104ZM1310.88 353.976V348.572H1318.38V335.748H1316.14V340.228H1303.32V335.748H1301.05V348.572H1308.55V353.976H1298.36V355.852H1321.12V353.976H1310.88ZM1330.81 351.372C1328.37 351.372 1326.66 348.74 1326.66 344.652C1326.66 340.592 1328.37 337.96 1330.81 337.96C1333.22 337.96 1334.92 340.592 1334.92 344.652C1334.92 348.74 1333.22 351.372 1330.81 351.372ZM1330.81 335.888C1327.11 335.888 1324.48 339.304 1324.48 344.652C1324.48 350 1327.11 353.416 1330.81 353.416C1334.5 353.416 1337.11 350 1337.11 344.652C1337.11 339.304 1334.5 335.888 1330.81 335.888ZM1347.58 343.98H1343.44V333.984H1341.14V359.072H1343.44V345.912H1347.58V343.98ZM1357.74 348.04C1358.78 348.292 1359.98 348.432 1361.21 348.432C1362.47 348.432 1363.68 348.292 1364.74 348.04V353.948H1357.74V348.04ZM1361.21 337.344C1365.25 337.344 1368.16 339.192 1368.16 341.992C1368.16 344.792 1365.25 346.64 1361.21 346.64C1357.18 346.64 1354.3 344.792 1354.3 341.992C1354.3 339.192 1357.18 337.344 1361.21 337.344ZM1367.04 353.948V347.144C1369.11 346.052 1370.34 344.26 1370.34 341.992C1370.34 338.072 1366.56 335.552 1361.21 335.552C1355.89 335.552 1352.09 338.072 1352.09 341.992C1352.09 344.26 1353.35 346.08 1355.45 347.172V353.948H1349.85V355.852H1372.67V353.948H1367.04ZM1379.08 337.094L1378.91 351.381H1376.62L1376.43 337.094H1379.08ZM1376.35 355.729C1376.35 355.318 1376.47 354.972 1376.72 354.689C1376.97 354.407 1377.35 354.266 1377.84 354.266C1378.32 354.266 1378.69 354.407 1378.95 354.689C1379.21 354.972 1379.34 355.318 1379.34 355.729C1379.34 356.12 1379.21 356.458 1378.95 356.74C1378.69 357.023 1378.32 357.164 1377.84 357.164C1377.35 357.164 1376.97 357.023 1376.72 356.74C1376.47 356.458 1376.35 356.12 1376.35 355.729ZM572.762 383.268H582.142V381.364H570.466V397.856H572.454C577.186 397.856 580.49 397.688 584.326 396.96L584.074 395.056C580.434 395.7 577.214 395.896 572.762 395.896V383.268ZM592.866 388.868H588.722V378.956H586.426V404.128H588.722V390.772H592.866V388.868ZM597.876 386.348C597.876 383.996 599.668 382.372 602.188 382.372C604.68 382.372 606.5 383.996 606.5 386.348C606.5 388.7 604.68 390.352 602.188 390.352C599.668 390.352 597.876 388.7 597.876 386.348ZM608.74 386.348C608.74 382.876 605.968 380.468 602.188 380.468C598.38 380.468 595.636 382.876 595.636 386.348C595.636 389.848 598.38 392.284 602.188 392.284C605.968 392.284 608.74 389.848 608.74 386.348ZM606.668 402.224C602.944 402.224 600.676 401.132 600.676 399.34C600.676 397.52 602.944 396.456 606.668 396.456C610.364 396.456 612.632 397.52 612.632 399.34C612.632 401.132 610.364 402.224 606.668 402.224ZM606.668 394.636C601.572 394.636 598.38 396.344 598.38 399.34C598.38 402.308 601.572 404.044 606.668 404.044C611.736 404.044 614.928 402.308 614.928 399.34C614.928 396.344 611.736 394.636 606.668 394.636ZM618.316 384.584V382.708H614.676V378.984H612.38V393.852H614.676V389.96H618.316V388.056H614.676V384.584H618.316ZM635.814 382.036H629.542V378.956H627.246V382.036H621.002V383.884H635.814V382.036ZM624.586 389.932C624.586 388.196 626.126 387.076 628.394 387.076C630.662 387.076 632.23 388.196 632.23 389.932C632.23 391.696 630.662 392.816 628.394 392.816C626.126 392.816 624.586 391.696 624.586 389.932ZM634.414 389.932C634.414 387.132 631.95 385.284 628.394 385.284C624.838 385.284 622.402 387.132 622.402 389.932C622.402 392.76 624.838 394.608 628.394 394.608C631.95 394.608 634.414 392.76 634.414 389.932ZM627.078 396.316H624.782V403.512H641.526V401.636H627.078V396.316ZM640.406 387.244V378.956H638.11V397.8H640.406V389.176H644.102V387.244H640.406ZM657.457 395.28V397.128H671.933V404.1H674.229V395.28H657.457ZM671.933 378.984V393.908H674.229V378.984H671.933ZM660.761 380.468C656.953 380.468 654.209 382.876 654.209 386.404C654.209 389.932 656.953 392.34 660.761 392.34C664.541 392.34 667.313 389.932 667.313 386.404C667.313 382.876 664.541 380.468 660.761 380.468ZM660.761 382.4C663.253 382.4 665.073 384.052 665.073 386.404C665.073 388.756 663.253 390.408 660.761 390.408C658.241 390.408 656.449 388.756 656.449 386.404C656.449 384.052 658.241 382.4 660.761 382.4ZM689.739 390.184H682.795V382.708H689.739V390.184ZM697.747 384.892V388H691.979V384.892H697.747ZM691.979 389.848H697.747V393.824H700.071V378.984H697.747V383.044H691.979V380.86H680.527V392.004H691.979V389.848ZM691.755 402.252C688.003 402.252 685.707 401.16 685.707 399.312C685.707 397.464 688.003 396.372 691.755 396.372C695.563 396.372 697.859 397.464 697.859 399.312C697.859 401.16 695.563 402.252 691.755 402.252ZM691.755 394.58C686.603 394.58 683.411 396.288 683.411 399.312C683.411 402.308 686.603 404.044 691.755 404.044C696.935 404.044 700.155 402.308 700.155 399.312C700.155 396.288 696.935 394.58 691.755 394.58ZM719.052 389.232H714.712C715.552 386.992 715.916 384.612 715.916 382.148H706.228V384.024H713.648C713.228 389.288 710.54 393.796 705.164 397.016L706.508 398.668C709.98 396.596 712.388 393.992 713.9 391.08H719.052V402.812H721.236V379.628H719.052V389.232ZM724.288 378.956V404.072H726.472V378.956H724.288ZM739.798 381.14H737.53V385.648C737.53 390.408 734.478 395.224 730.782 396.988L732.182 398.864C735.122 397.352 737.53 394.216 738.678 390.436C739.882 394.02 742.29 396.988 745.146 398.388L746.518 396.54C742.794 394.86 739.798 390.24 739.798 385.648V381.14ZM749.15 378.956V404.128H751.446V378.956H749.15ZM762.14 383.156H766.144V391.584C764.8 391.668 763.456 391.696 762.14 391.724V383.156ZM772.024 391.108C770.848 391.248 769.616 391.36 768.356 391.444V383.156H770.848V381.308H757.436V383.156H759.9V391.78C758.78 391.808 757.716 391.808 756.736 391.808L756.988 393.712C761.328 393.712 767.18 393.6 772.192 392.816L772.024 391.108ZM762.812 395.728H760.516V403.512H777.26V401.636H762.812V395.728ZM776.14 386.6V378.956H773.844V397.464H776.14V388.504H779.836V386.6H776.14ZM788.094 396.428C786.078 396.428 784.818 393.88 784.818 389.764C784.818 385.732 786.078 383.184 788.094 383.184C790.054 383.184 791.342 385.732 791.342 389.764C791.342 393.88 790.054 396.428 788.094 396.428ZM796.578 388.728H793.414C793.134 383.996 791.118 381.056 788.094 381.056C784.818 381.056 782.718 384.416 782.718 389.764C782.718 395.196 784.818 398.556 788.094 398.556C791.174 398.556 793.218 395.532 793.414 390.604H796.578V402.84H798.762V379.516H796.578V388.728ZM801.562 378.956V404.072H803.746V378.956H801.562ZM816.96 381.112H814.664V385.62C814.664 390.268 811.808 395.112 808.168 396.932L809.568 398.752C812.396 397.24 814.72 394.076 815.812 390.352C816.96 393.88 819.256 396.876 822.112 398.304L823.456 396.484C819.816 394.748 816.96 390.184 816.96 385.62V381.112ZM826.564 378.956V387.468H820.74V389.344H826.564V404.1H828.86V378.956H826.564ZM844.035 383.884H851.119V382.008H841.767V397.884H843.419C847.171 397.884 849.719 397.772 852.715 397.128L852.519 395.224C849.775 395.812 847.395 395.952 844.035 395.98V383.884ZM859.995 378.956V389.036H856.439V379.516H854.283V402.812H856.439V390.912H859.995V404.072H862.207V378.956H859.995ZM881.525 381.616H875.253V378.816H872.957V381.616H866.713V383.464H881.525V381.616ZM870.297 389.288C870.297 387.636 871.809 386.544 874.105 386.544C876.401 386.544 877.941 387.636 877.941 389.288C877.941 390.968 876.401 392.06 874.105 392.06C871.809 392.06 870.297 390.968 870.297 389.288ZM880.125 389.288C880.125 386.544 877.689 384.752 874.105 384.752C870.549 384.752 868.113 386.544 868.113 389.288C868.113 392.06 870.549 393.824 874.105 393.824C877.689 393.824 880.125 392.06 880.125 389.288ZM869.821 397.912H883.821V404.1H886.117V396.036H869.821V397.912ZM889.841 385.9H886.117V378.984H883.821V394.664H886.117V387.804H889.841V385.9ZM908.178 387.58H911.37V394.468H913.582V378.984H911.37V385.704H908.178V379.46H905.994V393.656H908.178V387.58ZM904.958 390.744C901.738 389.512 899.862 386.684 899.862 383.912V380.524H897.65V383.912C897.65 386.712 895.69 389.96 892.414 391.416L893.646 393.208C896.082 392.116 897.874 389.988 898.77 387.636C899.666 389.764 901.374 391.556 903.726 392.508L904.958 390.744ZM905.294 402.28C901.542 402.28 899.19 401.272 899.19 399.536C899.19 397.8 901.542 396.82 905.294 396.82C909.102 396.82 911.426 397.8 911.426 399.536C911.426 401.272 909.102 402.28 905.294 402.28ZM905.294 395.028C900.142 395.028 896.922 396.68 896.922 399.536C896.922 402.392 900.142 404.044 905.294 404.044C910.474 404.044 913.694 402.392 913.694 399.536C913.694 396.68 910.474 395.028 905.294 395.028ZM936.4 378.956V404.128H938.696V378.956H936.4ZM925.452 380.888C921.728 380.888 919.068 384.304 919.068 389.652C919.068 395 921.728 398.416 925.452 398.416C929.176 398.416 931.836 395 931.836 389.652C931.836 384.304 929.176 380.888 925.452 380.888ZM925.452 382.96C927.888 382.96 929.624 385.592 929.624 389.652C929.624 393.74 927.888 396.372 925.452 396.372C922.988 396.372 921.252 393.74 921.252 389.652C921.252 385.592 922.988 382.96 925.452 382.96ZM971.483 378.956H969.187V392.004H971.483V378.956ZM956.671 382.456H960.759V388.98C959.387 389.064 958.015 389.12 956.671 389.148V382.456ZM966.667 388.504C965.463 388.616 964.231 388.756 962.971 388.84V382.456H965.435V380.636H951.967V382.456H954.431V389.204C953.339 389.232 952.275 389.232 951.295 389.232L951.519 391.136C955.943 391.108 961.795 390.94 966.779 390.184L966.667 388.504ZM957.427 401.972V399.228H971.483V393.208H955.075V395H969.215V397.52H955.159V403.792H972.435V401.972H957.427ZM984.473 393.04C985.509 393.292 986.713 393.432 987.945 393.432C989.205 393.432 990.409 393.292 991.473 393.04V398.948H984.473V393.04ZM987.945 382.344C991.977 382.344 994.889 384.192 994.889 386.992C994.889 389.792 991.977 391.64 987.945 391.64C983.913 391.64 981.029 389.792 981.029 386.992C981.029 384.192 983.913 382.344 987.945 382.344ZM993.769 398.948V392.144C995.841 391.052 997.073 389.26 997.073 386.992C997.073 383.072 993.293 380.552 987.945 380.552C982.625 380.552 978.817 383.072 978.817 386.992C978.817 389.26 980.077 391.08 982.177 392.172V398.948H976.577V400.852H999.397V398.948H993.769ZM1017.26 382.036H1010.99V378.956H1008.69V382.036H1002.45V383.884H1017.26V382.036ZM1006.03 389.932C1006.03 388.196 1007.57 387.076 1009.84 387.076C1012.11 387.076 1013.67 388.196 1013.67 389.932C1013.67 391.696 1012.11 392.816 1009.84 392.816C1007.57 392.816 1006.03 391.696 1006.03 389.932ZM1015.86 389.932C1015.86 387.132 1013.39 385.284 1009.84 385.284C1006.28 385.284 1003.85 387.132 1003.85 389.932C1003.85 392.76 1006.28 394.608 1009.84 394.608C1013.39 394.608 1015.86 392.76 1015.86 389.932ZM1008.52 396.316H1006.23V403.512H1022.97V401.636H1008.52V396.316ZM1021.85 387.244V378.956H1019.55V397.8H1021.85V389.176H1025.55V387.244H1021.85ZM1039.97 382.876H1052.82V391.024H1039.97V382.876ZM1047.58 398.948V392.844H1055.06V381.056H1037.75V392.844H1045.26V398.948H1035.07V400.852H1057.83V398.948H1047.58ZM1080.93 387.02H1065.98V381.896H1080.7V380.02H1063.68V388.868H1080.93V387.02ZM1066.03 396.148H1063.74V403.484H1081.15V401.608H1066.03V396.148ZM1060.82 391.64V393.488H1083.53V391.64H1060.82ZM1106.94 385.48V387.356H1111.89V393.936H1114.22V378.984H1111.89V385.48H1106.94ZM1108.34 391.192C1104.7 389.904 1102.23 386.74 1102.23 383.52V382.652H1107.75V380.804H1094.34V382.652H1099.94V383.52C1099.94 387.132 1097.36 390.52 1093.61 391.892L1094.81 393.712C1097.75 392.592 1100.08 390.24 1101.14 387.328C1102.23 389.904 1104.39 391.976 1107.19 392.984L1108.34 391.192ZM1105.93 402.28C1102.15 402.28 1099.85 401.216 1099.85 399.396C1099.85 397.576 1102.15 396.484 1105.93 396.484C1109.71 396.484 1112.01 397.576 1112.01 399.396C1112.01 401.216 1109.71 402.28 1105.93 402.28ZM1105.93 394.72C1100.78 394.72 1097.56 396.428 1097.56 399.396C1097.56 402.364 1100.78 404.072 1105.93 404.072C1111.08 404.072 1114.3 402.364 1114.3 399.396C1114.3 396.428 1111.08 394.72 1105.93 394.72ZM1124.24 387.104H1137.06V391.724H1124.24V387.104ZM1131.8 398.976V393.572H1139.3V380.748H1137.06V385.228H1124.24V380.748H1121.97V393.572H1129.48V398.976H1119.28V400.852H1142.05V398.976H1131.8ZM1162.63 383.352H1147.95V388.728H1165.34V387.076H1150.22V384.92H1164.89V379.684H1147.9V381.308H1162.63V383.352ZM1150.08 399.76H1164.98V394.412H1147.76V396.064H1162.71V398.164H1147.81V403.736H1165.76V402.084H1150.08V399.76ZM1145.04 390.632V392.368H1167.81V390.632H1145.04ZM1180.32 386.236C1180.32 383.912 1182.14 382.26 1184.61 382.26C1187.04 382.26 1188.89 383.912 1188.89 386.236C1188.89 388.616 1187.04 390.296 1184.61 390.296C1182.14 390.296 1180.32 388.616 1180.32 386.236ZM1196.11 387.188V393.404H1198.44V378.984H1196.11V385.284H1190.96C1190.51 382.316 1187.97 380.3 1184.61 380.3C1180.88 380.3 1178.14 382.764 1178.14 386.236C1178.14 389.792 1180.88 392.256 1184.61 392.256C1187.97 392.256 1190.54 390.212 1190.96 387.188H1196.11ZM1184.47 401.888V396.652H1198.55V394.804H1182.2V403.736H1198.94V401.888H1184.47ZM1214.84 381.112C1218.96 381.112 1221.31 382.064 1221.31 383.744C1221.31 385.424 1218.96 386.376 1214.84 386.376C1210.73 386.376 1208.38 385.424 1208.38 383.744C1208.38 382.064 1210.73 381.112 1214.84 381.112ZM1214.84 388.084C1220.36 388.084 1223.66 386.572 1223.66 383.744C1223.66 380.916 1220.36 379.376 1214.84 379.376C1209.33 379.376 1206.02 380.916 1206.02 383.744C1206.02 386.572 1209.33 388.084 1214.84 388.084ZM1208.54 399.452H1223.3V393.796H1206.22V395.532H1221.03V397.772H1206.3V403.792H1224.06V402H1208.54V399.452ZM1203.48 389.792V391.64H1226.21V389.792H1203.48ZM1257.82 388.532C1253.26 387.86 1248.78 384.752 1248.78 381.252V379.852H1246.37V381.252C1246.37 384.836 1241.95 387.86 1237.38 388.532L1238.31 390.38C1242.23 389.708 1246.01 387.552 1247.57 384.5C1249.2 387.524 1252.98 389.708 1256.87 390.38L1257.82 388.532ZM1258.91 393.096H1236.23V395H1246.37V404.1H1248.67V395H1258.94L1258.91 393.096ZM1289.52 378.984H1287.22V393.32H1289.52V378.984ZM1276.02 382.344C1278.51 382.344 1280.36 383.996 1280.36 386.292C1280.36 388.616 1278.51 390.24 1276.02 390.24C1273.53 390.24 1271.74 388.616 1271.74 386.292C1271.74 383.996 1273.53 382.344 1276.02 382.344ZM1276.02 392.144C1279.83 392.144 1282.6 389.764 1282.6 386.292C1282.6 382.82 1279.83 380.44 1276.02 380.44C1272.24 380.44 1269.5 382.82 1269.5 386.292C1269.5 389.764 1272.24 392.144 1276.02 392.144ZM1286.72 394.412H1284.48V395.756C1284.48 397.716 1283.27 400.236 1280.87 401.72C1278.54 400.348 1277.39 397.968 1277.39 395.756V394.412H1275.18V395.756C1275.18 398.164 1273.31 400.88 1270.14 402L1271.29 403.736C1273.64 402.84 1275.35 401.104 1276.25 399.088C1277 401.188 1278.51 403.008 1280.92 403.96C1283.25 402.952 1284.79 401.048 1285.57 399.004C1286.41 401.104 1288.15 402.84 1290.61 403.736L1291.76 402C1288.57 400.936 1286.72 398.36 1286.72 395.756V394.412ZM1301.39 396.372C1298.98 396.372 1297.3 393.74 1297.3 389.652C1297.3 385.592 1298.98 382.96 1301.39 382.96C1303.77 382.96 1305.45 385.592 1305.45 389.652C1305.45 393.74 1303.77 396.372 1301.39 396.372ZM1313.06 378.956V388.532H1307.6C1307.24 383.828 1304.78 380.888 1301.39 380.888C1297.72 380.888 1295.12 384.304 1295.12 389.652C1295.12 395 1297.72 398.416 1301.39 398.416C1304.89 398.416 1307.38 395.336 1307.6 390.408H1313.06V404.128H1315.36V378.956H1313.06ZM1328.29 393.04C1329.33 393.292 1330.53 393.432 1331.77 393.432C1333.03 393.432 1334.23 393.292 1335.29 393.04V398.948H1328.29V393.04ZM1331.77 382.344C1335.8 382.344 1338.71 384.192 1338.71 386.992C1338.71 389.792 1335.8 391.64 1331.77 391.64C1327.73 391.64 1324.85 389.792 1324.85 386.992C1324.85 384.192 1327.73 382.344 1331.77 382.344ZM1337.59 398.948V392.144C1339.66 391.052 1340.89 389.26 1340.89 386.992C1340.89 383.072 1337.11 380.552 1331.77 380.552C1326.45 380.552 1322.64 383.072 1322.64 386.992C1322.64 389.26 1323.9 391.08 1326 392.172V398.948H1320.4V400.852H1343.22V398.948H1337.59ZM1346.67 400.66C1346.67 400.232 1346.8 399.872 1347.06 399.58C1347.34 399.279 1347.73 399.129 1348.24 399.129C1348.75 399.129 1349.14 399.279 1349.4 399.58C1349.68 399.872 1349.81 400.232 1349.81 400.66C1349.81 401.079 1349.68 401.435 1349.4 401.727C1349.14 402.018 1348.75 402.164 1348.24 402.164C1347.73 402.164 1347.34 402.018 1347.06 401.727C1346.8 401.435 1346.67 401.079 1346.67 400.66Z" fill="#1C2D30"/>
<path d="M833.691 772.136C825.122 770.488 817.047 778.396 819.519 783.998C821.826 789.6 834.515 795.036 840.118 789.6C845.556 783.998 845.556 774.442 833.691 772.136Z" fill="#EFC286"/>
<path d="M864.838 793.224C860.059 793.389 851.984 807.228 858.411 809.04C864.838 810.853 877.362 810.029 879.669 806.24C881.811 802.286 880.658 792.895 864.838 793.224Z" fill="#E02D58"/>
<path d="M906.2 797.672C899.938 797.178 896.972 807.722 901.421 808.71C905.871 809.864 913.122 806.404 913.122 802.285C913.286 798.166 910.979 798.002 906.2 797.672Z" fill="#E06F58"/>
<path d="M1040.34 685.311H849.019C843.416 685.311 838.967 680.698 838.967 675.261V550.05C838.967 544.448 843.581 540 849.019 540H1040.51C1046.11 540 1050.56 544.613 1050.56 550.05V675.426C1050.56 680.863 1045.95 685.311 1040.34 685.311Z" fill="#E5D4CF"/>
<path d="M866.985 572.785C872.173 572.785 876.378 568.581 876.378 563.394C876.378 558.208 872.173 554.003 866.985 554.003C861.797 554.003 857.592 558.208 857.592 563.394C857.592 568.581 861.797 572.785 866.985 572.785Z" fill="#E06F58"/>
<path opacity="0.8" d="M958.113 569.82H890.054C886.593 569.82 883.627 567.019 883.627 563.395C883.627 559.935 886.428 556.969 890.054 556.969H958.113C961.574 556.969 964.54 559.77 964.54 563.395C964.54 566.854 961.574 569.82 958.113 569.82Z" fill="#C1B3B2"/>
<path opacity="0.8" d="M1022.72 671.142H867.481C862.537 671.142 858.582 667.187 858.582 662.245V609.689C858.582 604.747 862.537 600.792 867.481 600.792H1022.72C1027.66 600.792 1031.61 604.747 1031.61 609.689V662.245C1031.61 667.187 1027.66 671.142 1022.72 671.142Z" fill="#C1B3B2"/>
<path d="M1027.49 591.072H862.702C860.395 591.072 858.582 589.26 858.582 586.953V586.13C858.582 583.823 860.395 582.011 862.702 582.011H1027.49C1029.8 582.011 1031.61 583.823 1031.61 586.13V586.953C1031.61 589.26 1029.8 591.072 1027.49 591.072Z" fill="#D1C5C5"/>
<path d="M1089.94 760.933H898.453C892.85 760.933 888.4 756.32 888.4 750.883V625.507C888.4 619.905 893.015 615.457 898.453 615.457H1089.94C1095.54 615.457 1099.99 620.07 1099.99 625.507V750.883C1099.99 756.32 1095.54 760.933 1089.94 760.933Z" fill="#F4ECE9"/>
<path d="M916.577 648.243C921.764 648.243 925.97 644.039 925.97 638.852C925.97 633.666 921.764 629.461 916.577 629.461C911.389 629.461 907.184 633.666 907.184 638.852C907.184 644.039 911.389 648.243 916.577 648.243Z" fill="#E02D58"/>
<path d="M1007.54 645.278H939.482C936.021 645.278 933.055 642.477 933.055 638.853C933.055 635.393 935.856 632.427 939.482 632.427H1007.54C1011 632.427 1013.97 635.228 1013.97 638.853C1013.97 642.312 1011.17 645.278 1007.54 645.278Z" fill="#C1B3B2"/>
<path opacity="0.8" d="M1072.14 746.764H917.073C912.129 746.764 908.174 742.81 908.174 737.867V685.312C908.174 680.369 912.129 676.415 917.073 676.415H1072.31C1077.25 676.415 1081.21 680.369 1081.21 685.312V737.867C1081.21 742.645 1077.09 746.764 1072.14 746.764Z" fill="#C1B3B2"/>
<path opacity="0.6" d="M1077.09 666.53H912.294C909.987 666.53 908.174 664.718 908.174 662.411V661.588C908.174 659.281 909.987 657.469 912.294 657.469H1077.09C1079.39 657.469 1081.21 659.281 1081.21 661.588V662.411C1081.21 664.718 1079.39 666.53 1077.09 666.53Z" fill="#C1B3B2"/>
<path d="M1009.86 786.14C1031.07 786.14 1048.26 768.953 1048.26 747.752C1048.26 726.552 1031.07 709.365 1009.86 709.365C988.654 709.365 971.463 726.552 971.463 747.752C971.463 768.953 988.654 786.14 1009.86 786.14Z" fill="#B9D9DB" stroke="#E02D58" stroke-width="6.5793" stroke-miterlimit="10"/>
<path d="M1044.79 830.952C1041.17 832.435 1037.05 830.787 1035.56 827.163L1019.58 788.776C1018.1 785.151 1019.74 781.032 1023.37 779.55C1026.99 778.067 1031.11 779.714 1032.6 783.339L1048.58 821.726C1050.07 825.351 1048.25 829.469 1044.79 830.952Z" fill="#E02D58"/>
<path d="M1019.74 746.599L1013.32 762.086C1012.66 763.733 1010.68 764.557 1009.03 763.898C1007.38 763.239 1006.56 761.262 1007.22 759.614L1013.65 744.128C1014.31 742.48 1016.28 741.656 1017.93 742.315C1019.58 743.139 1020.4 744.951 1019.74 746.599Z" fill="#9FC8CE"/>
<path d="M1032.76 746.104L1026.34 761.591C1025.68 763.239 1023.7 764.062 1022.05 763.403C1020.4 762.744 1019.58 760.767 1020.24 759.12L1026.67 743.633C1027.33 741.985 1029.3 741.162 1030.95 741.821C1032.6 742.48 1033.42 744.457 1032.76 746.104Z" fill="#9FC8CE"/>
</svg>
